<svg xmlns="http://www.w3.org/2000/svg" width="1280" height="720" viewBox="0 0 1280 720"><rect x="0" y="0" width="1280" height="720" rx="0" fill="#2a2520"/><polygon points="0,0 360,120 360,560 0,720" fill="#16120e"/><polygon points="1280,0 920,120 920,560 1280,720" fill="#16120e"/><rect x="360" y="120" width="560" height="440" fill="#3b332a"/><rect x="580" y="230" width="90" height="70" fill="#f2b24a"/><line x1="625" y1="230" x2="625" y2="300" stroke="#16120e" stroke-width="5" stroke-linecap="round"/><line x1="580" y1="265" x2="670" y2="265" stroke="#16120e" stroke-width="5" stroke-linecap="round"/><polygon points="0,720 360,560 920,560 1280,720" fill="#4a4138"/><line x1="0" y1="570" x2="1280" y2="570" stroke="#16120e" stroke-width="1.2" stroke-linecap="round" opacity="0.7"/><line x1="0" y1="588" x2="1280" y2="588" stroke="#16120e" stroke-width="1.2" stroke-linecap="round" opacity="0.7"/><line x1="0" y1="606" x2="1280" y2="606" stroke="#16120e" stroke-width="1.2" stroke-linecap="round" opacity="0.7"/><line x1="0" y1="624" x2="1280" y2="624" stroke="#16120e" stroke-width="1.2" stroke-linecap="round" opacity="0.7"/><line x1="0" y1="642" x2="1280" y2="642" stroke="#16120e" stroke-width="1.2" stroke-linecap="round" opacity="0.7"/><line x1="0" y1="660" x2="1280" y2="660" stroke="#16120e" stroke-width="1.2" stroke-linecap="round" opacity="0.7"/><line x1="0" y1="678" x2="1280" y2="678" stroke="#16120e" stroke-width="1.2" stroke-linecap="round" opacity="0.7"/><line x1="0" y1="696" x2="1280" y2="696" stroke="#16120e" stroke-width="1.2" stroke-linecap="round" opacity="0.7"/><line x1="0" y1="714" x2="1280" y2="714" stroke="#16120e" stroke-width="1.2" stroke-linecap="round" opacity="0.7"/><line x1="1241" y1="629" x2="1233" y2="663" stroke="#a8987a" stroke-width="1.2" stroke-linecap="round" opacity="0.55"/><line x1="1184" y1="542" x2="1176" y2="576" stroke="#a8987a" stroke-width="1.2" stroke-linecap="round" opacity="0.55"/><line x1="152" y1="310" x2="144" y2="344" stroke="#a8987a" stroke-width="1.2" stroke-linecap="round" opacity="0.55"/><line x1="912" y1="583" x2="904" y2="617" stroke="#a8987a" stroke-width="1.2" stroke-linecap="round" opacity="0.55"/><line x1="295" y1="255" x2="287" y2="289" stroke="#a8987a" stroke-width="1.2" stroke-linecap="round" opacity="0.55"/><line x1="682" y1="56" x2="674" y2="90" stroke="#a8987a" stroke-width="1.2" stroke-linecap="round" opacity="0.55"/><line x1="338" y1="84" x2="330" y2="118" stroke="#a8987a" stroke-width="1.2" stroke-linecap="round" opacity="0.55"/><line x1="204" y1="37" x2="196" y2="71" stroke="#a8987a" stroke-width="1.2" stroke-linecap="round" opacity="0.55"/><line x1="486" y1="106" x2="478" y2="140" stroke="#a8987a" stroke-width="1.2" stroke-linecap="round" opacity="0.55"/><line x1="701" y1="103" x2="693" y2="137" stroke="#a8987a" stroke-width="1.2" stroke-linecap="round" opacity="0.55"/><line x1="320" y1="208" x2="312" y2="242" stroke="#a8987a" stroke-width="1.2" stroke-linecap="round" opacity="0.55"/><line x1="1218" y1="153" x2="1210" y2="187" stroke="#a8987a" stroke-width="1.2" stroke-linecap="round" opacity="0.55"/><line x1="450" y1="230" x2="442" y2="264" stroke="#a8987a" stroke-width="1.2" stroke-linecap="round" opacity="0.55"/><line x1="1127" y1="654" x2="1119" y2="688" stroke="#a8987a" stroke-width="1.2" stroke-linecap="round" opacity="0.55"/><line x1="958" y1="507" x2="950" y2="541" stroke="#a8987a" stroke-width="1.2" stroke-linecap="round" opacity="0.55"/><line x1="833" y1="645" x2="825" y2="679" stroke="#a8987a" stroke-width="1.2" stroke-linecap="round" opacity="0.55"/><line x1="792" y1="664" x2="784" y2="698" stroke="#a8987a" stroke-width="1.2" stroke-linecap="round" opacity="0.55"/><line x1="1111" y1="288" x2="1103" y2="322" stroke="#a8987a" stroke-width="1.2" stroke-linecap="round" opacity="0.55"/><line x1="166" y1="266" x2="158" y2="300" stroke="#a8987a" stroke-width="1.2" stroke-linecap="round" opacity="0.55"/><line x1="1198" y1="24" x2="1190" y2="58" stroke="#a8987a" stroke-width="1.2" stroke-linecap="round" opacity="0.55"/><line x1="1154" y1="531" x2="1146" y2="565" stroke="#a8987a" stroke-width="1.2" stroke-linecap="round" opacity="0.55"/><line x1="448" y1="212" x2="440" y2="246" stroke="#a8987a" stroke-width="1.2" stroke-linecap="round" opacity="0.55"/><line x1="975" y1="106" x2="967" y2="140" stroke="#a8987a" stroke-width="1.2" stroke-linecap="round" opacity="0.55"/><line x1="1021" y1="43" x2="1013" y2="77" stroke="#a8987a" stroke-width="1.2" stroke-linecap="round" opacity="0.55"/><line x1="578" y1="321" x2="570" y2="355" stroke="#a8987a" stroke-width="1.2" stroke-linecap="round" opacity="0.55"/><line x1="220" y1="705" x2="212" y2="739" stroke="#a8987a" stroke-width="1.2" stroke-linecap="round" opacity="0.55"/><line x1="513" y1="396" x2="505" y2="430" stroke="#a8987a" stroke-width="1.2" stroke-linecap="round" opacity="0.55"/><line x1="793" y1="519" x2="785" y2="553" stroke="#a8987a" stroke-width="1.2" stroke-linecap="round" opacity="0.55"/><line x1="1155" y1="360" x2="1147" y2="394" stroke="#a8987a" stroke-width="1.2" stroke-linecap="round" opacity="0.55"/><line x1="337" y1="465" x2="329" y2="499" stroke="#a8987a" stroke-width="1.2" stroke-linecap="round" opacity="0.55"/><line x1="43" y1="65" x2="35" y2="99" stroke="#a8987a" stroke-width="1.2" stroke-linecap="round" opacity="0.55"/><line x1="820" y1="318" x2="812" y2="352" stroke="#a8987a" stroke-width="1.2" stroke-linecap="round" opacity="0.55"/><line x1="559" y1="365" x2="551" y2="399" stroke="#a8987a" stroke-width="1.2" stroke-linecap="round" opacity="0.55"/><line x1="400" y1="566" x2="392" y2="600" stroke="#a8987a" stroke-width="1.2" stroke-linecap="round" opacity="0.55"/><line x1="491" y1="625" x2="483" y2="659" stroke="#a8987a" stroke-width="1.2" stroke-linecap="round" opacity="0.55"/><line x1="501" y1="439" x2="493" y2="473" stroke="#a8987a" stroke-width="1.2" stroke-linecap="round" opacity="0.55"/><line x1="238" y1="303" x2="230" y2="337" stroke="#a8987a" stroke-width="1.2" stroke-linecap="round" opacity="0.55"/><line x1="473" y1="390" x2="465" y2="424" stroke="#a8987a" stroke-width="1.2" stroke-linecap="round" opacity="0.55"/><line x1="299" y1="410" x2="291" y2="444" stroke="#a8987a" stroke-width="1.2" stroke-linecap="round" opacity="0.55"/><line x1="638" y1="309" x2="630" y2="343" stroke="#a8987a" stroke-width="1.2" stroke-linecap="round" opacity="0.55"/><line x1="381" y1="34" x2="373" y2="68" stroke="#a8987a" stroke-width="1.2" stroke-linecap="round" opacity="0.55"/><line x1="919" y1="422" x2="911" y2="456" stroke="#a8987a" stroke-width="1.2" stroke-linecap="round" opacity="0.55"/><line x1="477" y1="702" x2="469" y2="736" stroke="#a8987a" stroke-width="1.2" stroke-linecap="round" opacity="0.55"/><line x1="695" y1="125" x2="687" y2="159" stroke="#a8987a" stroke-width="1.2" stroke-linecap="round" opacity="0.55"/><line x1="818" y1="286" x2="810" y2="320" stroke="#a8987a" stroke-width="1.2" stroke-linecap="round" opacity="0.55"/><line x1="1263" y1="265" x2="1255" y2="299" stroke="#a8987a" stroke-width="1.2" stroke-linecap="round" opacity="0.55"/><line x1="448" y1="281" x2="440" y2="315" stroke="#a8987a" stroke-width="1.2" stroke-linecap="round" opacity="0.55"/><line x1="102" y1="376" x2="94" y2="410" stroke="#a8987a" stroke-width="1.2" stroke-linecap="round" opacity="0.55"/><line x1="1262" y1="45" x2="1254" y2="79" stroke="#a8987a" stroke-width="1.2" stroke-linecap="round" opacity="0.55"/><line x1="568" y1="255" x2="560" y2="289" stroke="#a8987a" stroke-width="1.2" stroke-linecap="round" opacity="0.55"/><line x1="470" y1="715" x2="462" y2="749" stroke="#a8987a" stroke-width="1.2" stroke-linecap="round" opacity="0.55"/><line x1="663" y1="518" x2="655" y2="552" stroke="#a8987a" stroke-width="1.2" stroke-linecap="round" opacity="0.55"/><line x1="899" y1="317" x2="891" y2="351" stroke="#a8987a" stroke-width="1.2" stroke-linecap="round" opacity="0.55"/><line x1="1166" y1="127" x2="1158" y2="161" stroke="#a8987a" stroke-width="1.2" stroke-linecap="round" opacity="0.55"/><line x1="18" y1="557" x2="10" y2="591" stroke="#a8987a" stroke-width="1.2" stroke-linecap="round" opacity="0.55"/><line x1="371" y1="444" x2="363" y2="478" stroke="#a8987a" stroke-width="1.2" stroke-linecap="round" opacity="0.55"/><line x1="741" y1="248" x2="733" y2="282" stroke="#a8987a" stroke-width="1.2" stroke-linecap="round" opacity="0.55"/><line x1="968" y1="362" x2="960" y2="396" stroke="#a8987a" stroke-width="1.2" stroke-linecap="round" opacity="0.55"/><line x1="544" y1="449" x2="536" y2="483" stroke="#a8987a" stroke-width="1.2" stroke-linecap="round" opacity="0.55"/><line x1="869" y1="467" x2="861" y2="501" stroke="#a8987a" stroke-width="1.2" stroke-linecap="round" opacity="0.55"/><line x1="146" y1="498" x2="138" y2="532" stroke="#a8987a" stroke-width="1.2" stroke-linecap="round" opacity="0.55"/><line x1="794" y1="593" x2="786" y2="627" stroke="#a8987a" stroke-width="1.2" stroke-linecap="round" opacity="0.55"/><line x1="469" y1="465" x2="461" y2="499" stroke="#a8987a" stroke-width="1.2" stroke-linecap="round" opacity="0.55"/><line x1="504" y1="651" x2="496" y2="685" stroke="#a8987a" stroke-width="1.2" stroke-linecap="round" opacity="0.55"/><line x1="102" y1="285" x2="94" y2="319" stroke="#a8987a" stroke-width="1.2" stroke-linecap="round" opacity="0.55"/><line x1="746" y1="44" x2="738" y2="78" stroke="#a8987a" stroke-width="1.2" stroke-linecap="round" opacity="0.55"/><line x1="335" y1="670" x2="327" y2="704" stroke="#a8987a" stroke-width="1.2" stroke-linecap="round" opacity="0.55"/><line x1="1000" y1="49" x2="992" y2="83" stroke="#a8987a" stroke-width="1.2" stroke-linecap="round" opacity="0.55"/><line x1="182" y1="215" x2="174" y2="249" stroke="#a8987a" stroke-width="1.2" stroke-linecap="round" opacity="0.55"/><line x1="308" y1="138" x2="300" y2="172" stroke="#a8987a" stroke-width="1.2" stroke-linecap="round" opacity="0.55"/><line x1="599" y1="629" x2="591" y2="663" stroke="#a8987a" stroke-width="1.2" stroke-linecap="round" opacity="0.55"/><line x1="641" y1="53" x2="633" y2="87" stroke="#a8987a" stroke-width="1.2" stroke-linecap="round" opacity="0.55"/><line x1="103" y1="458" x2="95" y2="492" stroke="#a8987a" stroke-width="1.2" stroke-linecap="round" opacity="0.55"/><line x1="384" y1="186" x2="376" y2="220" stroke="#a8987a" stroke-width="1.2" stroke-linecap="round" opacity="0.55"/><line x1="1234" y1="275" x2="1226" y2="309" stroke="#a8987a" stroke-width="1.2" stroke-linecap="round" opacity="0.55"/><line x1="637" y1="613" x2="629" y2="647" stroke="#a8987a" stroke-width="1.2" stroke-linecap="round" opacity="0.55"/><line x1="408" y1="472" x2="400" y2="506" stroke="#a8987a" stroke-width="1.2" stroke-linecap="round" opacity="0.55"/><line x1="959" y1="641" x2="951" y2="675" stroke="#a8987a" stroke-width="1.2" stroke-linecap="round" opacity="0.55"/><line x1="847" y1="448" x2="839" y2="482" stroke="#a8987a" stroke-width="1.2" stroke-linecap="round" opacity="0.55"/><line x1="765" y1="378" x2="757" y2="412" stroke="#a8987a" stroke-width="1.2" stroke-linecap="round" opacity="0.55"/><line x1="93" y1="632" x2="85" y2="666" stroke="#a8987a" stroke-width="1.2" stroke-linecap="round" opacity="0.55"/><line x1="53" y1="349" x2="45" y2="383" stroke="#a8987a" stroke-width="1.2" stroke-linecap="round" opacity="0.55"/><line x1="984" y1="439" x2="976" y2="473" stroke="#a8987a" stroke-width="1.2" stroke-linecap="round" opacity="0.55"/><line x1="1104" y1="651" x2="1096" y2="685" stroke="#a8987a" stroke-width="1.2" stroke-linecap="round" opacity="0.55"/><line x1="300" y1="351" x2="292" y2="385" stroke="#a8987a" stroke-width="1.2" stroke-linecap="round" opacity="0.55"/><line x1="470" y1="410" x2="462" y2="444" stroke="#a8987a" stroke-width="1.2" stroke-linecap="round" opacity="0.55"/><line x1="244" y1="119" x2="236" y2="153" stroke="#a8987a" stroke-width="1.2" stroke-linecap="round" opacity="0.55"/><line x1="713" y1="563" x2="705" y2="597" stroke="#a8987a" stroke-width="1.2" stroke-linecap="round" opacity="0.55"/><line x1="419" y1="224" x2="411" y2="258" stroke="#a8987a" stroke-width="1.2" stroke-linecap="round" opacity="0.55"/><line x1="44" y1="310" x2="36" y2="344" stroke="#a8987a" stroke-width="1.2" stroke-linecap="round" opacity="0.55"/><line x1="804" y1="71" x2="796" y2="105" stroke="#a8987a" stroke-width="1.2" stroke-linecap="round" opacity="0.55"/><line x1="283" y1="481" x2="275" y2="515" stroke="#a8987a" stroke-width="1.2" stroke-linecap="round" opacity="0.55"/><line x1="1098" y1="328" x2="1090" y2="362" stroke="#a8987a" stroke-width="1.2" stroke-linecap="round" opacity="0.55"/><line x1="1031" y1="170" x2="1023" y2="204" stroke="#a8987a" stroke-width="1.2" stroke-linecap="round" opacity="0.55"/><line x1="943" y1="556" x2="935" y2="590" stroke="#a8987a" stroke-width="1.2" stroke-linecap="round" opacity="0.55"/><line x1="1178" y1="0" x2="1170" y2="34" stroke="#a8987a" stroke-width="1.2" stroke-linecap="round" opacity="0.55"/><line x1="751" y1="60" x2="743" y2="94" stroke="#a8987a" stroke-width="1.2" stroke-linecap="round" opacity="0.55"/><line x1="522" y1="227" x2="514" y2="261" stroke="#a8987a" stroke-width="1.2" stroke-linecap="round" opacity="0.55"/><line x1="646" y1="80" x2="638" y2="114" stroke="#a8987a" stroke-width="1.2" stroke-linecap="round" opacity="0.55"/><line x1="174" y1="450" x2="166" y2="484" stroke="#a8987a" stroke-width="1.2" stroke-linecap="round" opacity="0.55"/><line x1="275" y1="510" x2="267" y2="544" stroke="#a8987a" stroke-width="1.2" stroke-linecap="round" opacity="0.55"/><line x1="433" y1="252" x2="425" y2="286" stroke="#a8987a" stroke-width="1.2" stroke-linecap="round" opacity="0.55"/><line x1="834" y1="20" x2="826" y2="54" stroke="#a8987a" stroke-width="1.2" stroke-linecap="round" opacity="0.55"/><line x1="1114" y1="452" x2="1106" y2="486" stroke="#a8987a" stroke-width="1.2" stroke-linecap="round" opacity="0.55"/><line x1="322" y1="325" x2="314" y2="359" stroke="#a8987a" stroke-width="1.2" stroke-linecap="round" opacity="0.55"/><line x1="159" y1="284" x2="151" y2="318" stroke="#a8987a" stroke-width="1.2" stroke-linecap="round" opacity="0.55"/><line x1="864" y1="692" x2="856" y2="726" stroke="#a8987a" stroke-width="1.2" stroke-linecap="round" opacity="0.55"/><line x1="1038" y1="526" x2="1030" y2="560" stroke="#a8987a" stroke-width="1.2" stroke-linecap="round" opacity="0.55"/><line x1="16" y1="458" x2="8" y2="492" stroke="#a8987a" stroke-width="1.2" stroke-linecap="round" opacity="0.55"/><line x1="149" y1="252" x2="141" y2="286" stroke="#a8987a" stroke-width="1.2" stroke-linecap="round" opacity="0.55"/><line x1="141" y1="566" x2="133" y2="600" stroke="#a8987a" stroke-width="1.2" stroke-linecap="round" opacity="0.55"/><line x1="187" y1="54" x2="179" y2="88" stroke="#a8987a" stroke-width="1.2" stroke-linecap="round" opacity="0.55"/><line x1="899" y1="660" x2="891" y2="694" stroke="#a8987a" stroke-width="1.2" stroke-linecap="round" opacity="0.55"/><line x1="1087" y1="479" x2="1079" y2="513" stroke="#a8987a" stroke-width="1.2" stroke-linecap="round" opacity="0.55"/><line x1="1106" y1="170" x2="1098" y2="204" stroke="#a8987a" stroke-width="1.2" stroke-linecap="round" opacity="0.55"/><line x1="891" y1="614" x2="883" y2="648" stroke="#a8987a" stroke-width="1.2" stroke-linecap="round" opacity="0.55"/><line x1="681" y1="421" x2="673" y2="455" stroke="#a8987a" stroke-width="1.2" stroke-linecap="round" opacity="0.55"/><line x1="606" y1="442" x2="598" y2="476" stroke="#a8987a" stroke-width="1.2" stroke-linecap="round" opacity="0.55"/><line x1="111" y1="628" x2="103" y2="662" stroke="#a8987a" stroke-width="1.2" stroke-linecap="round" opacity="0.55"/><line x1="67" y1="570" x2="59" y2="604" stroke="#a8987a" stroke-width="1.2" stroke-linecap="round" opacity="0.55"/><line x1="767" y1="423" x2="759" y2="457" stroke="#a8987a" stroke-width="1.2" stroke-linecap="round" opacity="0.55"/><line x1="509" y1="713" x2="501" y2="747" stroke="#a8987a" stroke-width="1.2" stroke-linecap="round" opacity="0.55"/><line x1="394" y1="52" x2="386" y2="86" stroke="#a8987a" stroke-width="1.2" stroke-linecap="round" opacity="0.55"/><line x1="1209" y1="105" x2="1201" y2="139" stroke="#a8987a" stroke-width="1.2" stroke-linecap="round" opacity="0.55"/><line x1="777" y1="609" x2="769" y2="643" stroke="#a8987a" stroke-width="1.2" stroke-linecap="round" opacity="0.55"/><line x1="336" y1="228" x2="328" y2="262" stroke="#a8987a" stroke-width="1.2" stroke-linecap="round" opacity="0.55"/><line x1="468" y1="39" x2="460" y2="73" stroke="#a8987a" stroke-width="1.2" stroke-linecap="round" opacity="0.55"/><line x1="671" y1="131" x2="663" y2="165" stroke="#a8987a" stroke-width="1.2" stroke-linecap="round" opacity="0.55"/><line x1="410" y1="385" x2="402" y2="419" stroke="#a8987a" stroke-width="1.2" stroke-linecap="round" opacity="0.55"/><line x1="91" y1="493" x2="83" y2="527" stroke="#a8987a" stroke-width="1.2" stroke-linecap="round" opacity="0.55"/><line x1="115" y1="54" x2="107" y2="88" stroke="#a8987a" stroke-width="1.2" stroke-linecap="round" opacity="0.55"/><line x1="670" y1="371" x2="662" y2="405" stroke="#a8987a" stroke-width="1.2" stroke-linecap="round" opacity="0.55"/><line x1="487" y1="125" x2="479" y2="159" stroke="#a8987a" stroke-width="1.2" stroke-linecap="round" opacity="0.55"/><line x1="528" y1="61" x2="520" y2="95" stroke="#a8987a" stroke-width="1.2" stroke-linecap="round" opacity="0.55"/><line x1="862" y1="482" x2="854" y2="516" stroke="#a8987a" stroke-width="1.2" stroke-linecap="round" opacity="0.55"/><line x1="250" y1="366" x2="242" y2="400" stroke="#a8987a" stroke-width="1.2" stroke-linecap="round" opacity="0.55"/><line x1="324" y1="299" x2="316" y2="333" stroke="#a8987a" stroke-width="1.2" stroke-linecap="round" opacity="0.55"/><line x1="385" y1="607" x2="377" y2="641" stroke="#a8987a" stroke-width="1.2" stroke-linecap="round" opacity="0.55"/><line x1="484" y1="61" x2="476" y2="95" stroke="#a8987a" stroke-width="1.2" stroke-linecap="round" opacity="0.55"/><line x1="914" y1="571" x2="906" y2="605" stroke="#a8987a" stroke-width="1.2" stroke-linecap="round" opacity="0.55"/><line x1="1142" y1="276" x2="1134" y2="310" stroke="#a8987a" stroke-width="1.2" stroke-linecap="round" opacity="0.55"/><line x1="312" y1="197" x2="304" y2="231" stroke="#a8987a" stroke-width="1.2" stroke-linecap="round" opacity="0.55"/><line x1="1233" y1="639" x2="1225" y2="673" stroke="#a8987a" stroke-width="1.2" stroke-linecap="round" opacity="0.55"/><line x1="306" y1="142" x2="298" y2="176" stroke="#a8987a" stroke-width="1.2" stroke-linecap="round" opacity="0.55"/><line x1="28" y1="435" x2="20" y2="469" stroke="#a8987a" stroke-width="1.2" stroke-linecap="round" opacity="0.55"/><line x1="870" y1="197" x2="862" y2="231" stroke="#a8987a" stroke-width="1.2" stroke-linecap="round" opacity="0.55"/><line x1="656" y1="353" x2="648" y2="387" stroke="#a8987a" stroke-width="1.2" stroke-linecap="round" opacity="0.55"/><line x1="910" y1="679" x2="902" y2="713" stroke="#a8987a" stroke-width="1.2" stroke-linecap="round" opacity="0.55"/><line x1="511" y1="530" x2="503" y2="564" stroke="#a8987a" stroke-width="1.2" stroke-linecap="round" opacity="0.55"/><line x1="303" y1="293" x2="295" y2="327" stroke="#a8987a" stroke-width="1.2" stroke-linecap="round" opacity="0.55"/><line x1="962" y1="77" x2="954" y2="111" stroke="#a8987a" stroke-width="1.2" stroke-linecap="round" opacity="0.55"/><line x1="176" y1="372" x2="168" y2="406" stroke="#a8987a" stroke-width="1.2" stroke-linecap="round" opacity="0.55"/><line x1="67" y1="265" x2="59" y2="299" stroke="#a8987a" stroke-width="1.2" stroke-linecap="round" opacity="0.55"/><line x1="986" y1="150" x2="978" y2="184" stroke="#a8987a" stroke-width="1.2" stroke-linecap="round" opacity="0.55"/><line x1="505" y1="463" x2="497" y2="497" stroke="#a8987a" stroke-width="1.2" stroke-linecap="round" opacity="0.55"/><line x1="271" y1="109" x2="263" y2="143" stroke="#a8987a" stroke-width="1.2" stroke-linecap="round" opacity="0.55"/><line x1="638" y1="564" x2="630" y2="598" stroke="#a8987a" stroke-width="1.2" stroke-linecap="round" opacity="0.55"/><line x1="945" y1="54" x2="937" y2="88" stroke="#a8987a" stroke-width="1.2" stroke-linecap="round" opacity="0.55"/><line x1="7" y1="628" x2="-1" y2="662" stroke="#a8987a" stroke-width="1.2" stroke-linecap="round" opacity="0.55"/><line x1="868" y1="128" x2="860" y2="162" stroke="#a8987a" stroke-width="1.2" stroke-linecap="round" opacity="0.55"/></svg>
