<svg xmlns="http://www.w3.org/2000/svg" width="1280" height="720" viewBox="0 0 1280 720"><rect x="0" y="0" width="1280" height="720" rx="0" fill="#e9dfc7"/><line x1="-39" y1="0.0" x2="203" y2="-0.2" stroke="#a8987a" stroke-width="2.10" stroke-linecap="round"/><line x1="209" y1="0.0" x2="338" y2="-0.9" stroke="#a8987a" stroke-width="2.10" stroke-linecap="round"/><line x1="352" y1="0.0" x2="566" y2="-0.1" stroke="#a8987a" stroke-width="2.10" stroke-linecap="round"/><line x1="577" y1="0.0" x2="818" y2="-0.9" stroke="#a8987a" stroke-width="2.10" stroke-linecap="round"/><line x1="831" y1="0.0" x2="1033" y2="-0.8" stroke="#a8987a" stroke-width="2.10" stroke-linecap="round"/><line x1="1062" y1="0.0" x2="1482" y2="0.1" stroke="#a8987a" stroke-width="2.10" stroke-linecap="round"/><line x1="-22" y1="5.0" x2="265" y2="5.1" stroke="#a8987a" stroke-width="2.08" stroke-linecap="round"/><line x1="289" y1="5.0" x2="653" y2="5.6" stroke="#a8987a" stroke-width="2.08" stroke-linecap="round"/><line x1="678" y1="5.0" x2="813" y2="4.0" stroke="#a8987a" stroke-width="2.08" stroke-linecap="round"/><line x1="848" y1="5.0" x2="1081" y2="5.8" stroke="#a8987a" stroke-width="2.08" stroke-linecap="round"/><line x1="1103" y1="5.0" x2="1320" y2="5.4" stroke="#a8987a" stroke-width="2.08" stroke-linecap="round"/><line x1="-5" y1="10.2" x2="171" y2="10.6" stroke="#a8987a" stroke-width="2.05" stroke-linecap="round"/><line x1="193" y1="10.2" x2="439" y2="10.0" stroke="#a8987a" stroke-width="2.05" stroke-linecap="round"/><line x1="469" y1="10.2" x2="651" y2="10.5" stroke="#a8987a" stroke-width="2.05" stroke-linecap="round"/><line x1="668" y1="10.2" x2="1061" y2="9.5" stroke="#a8987a" stroke-width="2.05" stroke-linecap="round"/><line x1="1079" y1="10.2" x2="1292" y2="9.9" stroke="#a8987a" stroke-width="2.05" stroke-linecap="round"/><line x1="-7" y1="15.6" x2="238" y2="15.0" stroke="#a8987a" stroke-width="2.02" stroke-linecap="round"/><line x1="264" y1="15.6" x2="567" y2="16.1" stroke="#a8987a" stroke-width="2.02" stroke-linecap="round"/><line x1="603" y1="15.6" x2="839" y2="14.9" stroke="#a8987a" stroke-width="2.02" stroke-linecap="round"/><line x1="864" y1="15.6" x2="1082" y2="15.1" stroke="#a8987a" stroke-width="2.02" stroke-linecap="round"/><line x1="1094" y1="15.6" x2="1221" y2="15.7" stroke="#a8987a" stroke-width="2.02" stroke-linecap="round"/><line x1="1244" y1="15.6" x2="1553" y2="16.2" stroke="#a8987a" stroke-width="2.02" stroke-linecap="round"/><line x1="-9" y1="21.1" x2="186" y2="22.0" stroke="#a8987a" stroke-width="2.00" stroke-linecap="round"/><line x1="219" y1="21.1" x2="587" y2="20.3" stroke="#a8987a" stroke-width="2.00" stroke-linecap="round"/><line x1="596" y1="21.1" x2="788" y2="20.3" stroke="#a8987a" stroke-width="2.00" stroke-linecap="round"/><line x1="804" y1="21.1" x2="992" y2="21.1" stroke="#a8987a" stroke-width="2.00" stroke-linecap="round"/><line x1="1028" y1="21.1" x2="1275" y2="21.2" stroke="#a8987a" stroke-width="2.00" stroke-linecap="round"/><line x1="-18" y1="26.9" x2="276" y2="26.0" stroke="#a8987a" stroke-width="1.97" stroke-linecap="round"/><line x1="285" y1="26.9" x2="566" y2="26.9" stroke="#a8987a" stroke-width="1.97" stroke-linecap="round"/><line x1="604" y1="26.9" x2="917" y2="26.1" stroke="#a8987a" stroke-width="1.97" stroke-linecap="round"/><line x1="941" y1="26.9" x2="1188" y2="26.7" stroke="#a8987a" stroke-width="1.97" stroke-linecap="round"/><line x1="1202" y1="26.9" x2="1395" y2="26.6" stroke="#a8987a" stroke-width="1.97" stroke-linecap="round"/><line x1="-2" y1="32.9" x2="236" y2="32.6" stroke="#a8987a" stroke-width="1.94" stroke-linecap="round"/><line x1="252" y1="32.9" x2="462" y2="33.0" stroke="#a8987a" stroke-width="1.94" stroke-linecap="round"/><line x1="481" y1="32.9" x2="654" y2="33.5" stroke="#a8987a" stroke-width="1.94" stroke-linecap="round"/><line x1="688" y1="32.9" x2="926" y2="32.4" stroke="#a8987a" stroke-width="1.94" stroke-linecap="round"/><line x1="956" y1="32.9" x2="1143" y2="33.4" stroke="#a8987a" stroke-width="1.94" stroke-linecap="round"/><line x1="1166" y1="32.9" x2="1469" y2="32.9" stroke="#a8987a" stroke-width="1.94" stroke-linecap="round"/><line x1="-21" y1="39.1" x2="265" y2="38.2" stroke="#a8987a" stroke-width="1.91" stroke-linecap="round"/><line x1="286" y1="39.1" x2="521" y2="38.6" stroke="#a8987a" stroke-width="1.91" stroke-linecap="round"/><line x1="533" y1="39.1" x2="661" y2="38.6" stroke="#a8987a" stroke-width="1.91" stroke-linecap="round"/><line x1="690" y1="39.1" x2="1040" y2="39.9" stroke="#a8987a" stroke-width="1.91" stroke-linecap="round"/><line x1="1061" y1="39.1" x2="1344" y2="39.3" stroke="#a8987a" stroke-width="1.91" stroke-linecap="round"/><line x1="-2" y1="45.5" x2="335" y2="45.9" stroke="#a8987a" stroke-width="1.88" stroke-linecap="round"/><line x1="342" y1="45.5" x2="580" y2="45.6" stroke="#a8987a" stroke-width="1.88" stroke-linecap="round"/><line x1="608" y1="45.5" x2="734" y2="46.0" stroke="#a8987a" stroke-width="1.88" stroke-linecap="round"/><line x1="757" y1="45.5" x2="1114" y2="46.1" stroke="#a8987a" stroke-width="1.88" stroke-linecap="round"/><line x1="1131" y1="45.5" x2="1418" y2="45.0" stroke="#a8987a" stroke-width="1.88" stroke-linecap="round"/><line x1="-30" y1="52.1" x2="129" y2="52.3" stroke="#a8987a" stroke-width="1.85" stroke-linecap="round"/><line x1="158" y1="52.1" x2="425" y2="52.1" stroke="#a8987a" stroke-width="1.85" stroke-linecap="round"/><line x1="438" y1="52.1" x2="791" y2="51.9" stroke="#a8987a" stroke-width="1.85" stroke-linecap="round"/><line x1="797" y1="52.1" x2="976" y2="51.3" stroke="#a8987a" stroke-width="1.85" stroke-linecap="round"/><line x1="983" y1="52.1" x2="1103" y2="52.6" stroke="#a8987a" stroke-width="1.85" stroke-linecap="round"/><line x1="1115" y1="52.1" x2="1458" y2="51.7" stroke="#a8987a" stroke-width="1.85" stroke-linecap="round"/><line x1="-16" y1="59.0" x2="198" y2="58.1" stroke="#a8987a" stroke-width="1.81" stroke-linecap="round"/><line x1="222" y1="59.0" x2="540" y2="58.1" stroke="#a8987a" stroke-width="1.81" stroke-linecap="round"/><line x1="555" y1="59.0" x2="901" y2="60.0" stroke="#a8987a" stroke-width="1.81" stroke-linecap="round"/><line x1="911" y1="59.0" x2="1177" y2="58.0" stroke="#a8987a" stroke-width="1.81" stroke-linecap="round"/><line x1="1185" y1="59.0" x2="1574" y2="59.3" stroke="#a8987a" stroke-width="1.81" stroke-linecap="round"/><line x1="-4" y1="66.2" x2="349" y2="66.4" stroke="#a8987a" stroke-width="1.78" stroke-linecap="round"/><line x1="364" y1="66.2" x2="680" y2="66.3" stroke="#a8987a" stroke-width="1.78" stroke-linecap="round"/><line x1="701" y1="66.2" x2="1109" y2="66.9" stroke="#a8987a" stroke-width="1.78" stroke-linecap="round"/><line x1="1148" y1="66.2" x2="1550" y2="66.5" stroke="#a8987a" stroke-width="1.78" stroke-linecap="round"/><line x1="-24" y1="73.6" x2="327" y2="74.0" stroke="#a8987a" stroke-width="1.74" stroke-linecap="round"/><line x1="363" y1="73.6" x2="697" y2="73.3" stroke="#a8987a" stroke-width="1.74" stroke-linecap="round"/><line x1="705" y1="73.6" x2="946" y2="74.4" stroke="#a8987a" stroke-width="1.74" stroke-linecap="round"/><line x1="975" y1="73.6" x2="1210" y2="74.0" stroke="#a8987a" stroke-width="1.74" stroke-linecap="round"/><line x1="1248" y1="73.6" x2="1556" y2="73.9" stroke="#a8987a" stroke-width="1.74" stroke-linecap="round"/><line x1="-24" y1="81.3" x2="131" y2="81.0" stroke="#a8987a" stroke-width="1.71" stroke-linecap="round"/><line x1="164" y1="81.3" x2="556" y2="80.9" stroke="#a8987a" stroke-width="1.71" stroke-linecap="round"/><line x1="596" y1="81.3" x2="928" y2="81.1" stroke="#a8987a" stroke-width="1.71" stroke-linecap="round"/><line x1="940" y1="81.3" x2="1359" y2="81.4" stroke="#a8987a" stroke-width="1.71" stroke-linecap="round"/><line x1="-21" y1="89.2" x2="245" y2="89.7" stroke="#a8987a" stroke-width="1.67" stroke-linecap="round"/><line x1="279" y1="89.2" x2="478" y2="89.9" stroke="#a8987a" stroke-width="1.67" stroke-linecap="round"/><line x1="488" y1="89.2" x2="620" y2="89.1" stroke="#a8987a" stroke-width="1.67" stroke-linecap="round"/><line x1="651" y1="89.2" x2="905" y2="88.3" stroke="#a8987a" stroke-width="1.67" stroke-linecap="round"/><line x1="911" y1="89.2" x2="1328" y2="90.0" stroke="#a8987a" stroke-width="1.67" stroke-linecap="round"/><line x1="-18" y1="97.5" x2="240" y2="98.4" stroke="#a8987a" stroke-width="1.63" stroke-linecap="round"/><line x1="249" y1="97.5" x2="659" y2="97.4" stroke="#a8987a" stroke-width="1.63" stroke-linecap="round"/><line x1="690" y1="97.5" x2="914" y2="96.6" stroke="#a8987a" stroke-width="1.63" stroke-linecap="round"/><line x1="947" y1="97.5" x2="1289" y2="96.7" stroke="#a8987a" stroke-width="1.63" stroke-linecap="round"/><line x1="-20" y1="106.0" x2="220" y2="106.3" stroke="#a8987a" stroke-width="1.59" stroke-linecap="round"/><line x1="230" y1="106.0" x2="433" y2="105.3" stroke="#a8987a" stroke-width="1.59" stroke-linecap="round"/><line x1="450" y1="106.0" x2="767" y2="106.6" stroke="#a8987a" stroke-width="1.59" stroke-linecap="round"/><line x1="797" y1="106.0" x2="992" y2="105.3" stroke="#a8987a" stroke-width="1.59" stroke-linecap="round"/><line x1="999" y1="106.0" x2="1287" y2="106.7" stroke="#a8987a" stroke-width="1.59" stroke-linecap="round"/><line x1="-22" y1="114.9" x2="256" y2="114.5" stroke="#a8987a" stroke-width="1.54" stroke-linecap="round"/><line x1="270" y1="114.9" x2="440" y2="114.4" stroke="#a8987a" stroke-width="1.54" stroke-linecap="round"/><line x1="469" y1="114.9" x2="848" y2="114.4" stroke="#a8987a" stroke-width="1.54" stroke-linecap="round"/><line x1="874" y1="114.9" x2="1198" y2="114.6" stroke="#a8987a" stroke-width="1.54" stroke-linecap="round"/><line x1="1235" y1="114.9" x2="1551" y2="115.2" stroke="#a8987a" stroke-width="1.54" stroke-linecap="round"/><line x1="-8" y1="124.0" x2="392" y2="124.0" stroke="#a8987a" stroke-width="1.50" stroke-linecap="round"/><line x1="427" y1="124.0" x2="656" y2="124.1" stroke="#a8987a" stroke-width="1.50" stroke-linecap="round"/><line x1="691" y1="124.0" x2="913" y2="123.2" stroke="#a8987a" stroke-width="1.50" stroke-linecap="round"/><line x1="935" y1="124.0" x2="1115" y2="123.7" stroke="#a8987a" stroke-width="1.50" stroke-linecap="round"/><line x1="1130" y1="124.0" x2="1523" y2="123.9" stroke="#a8987a" stroke-width="1.50" stroke-linecap="round"/><line x1="-39" y1="133.5" x2="342" y2="133.8" stroke="#a8987a" stroke-width="1.45" stroke-linecap="round"/><line x1="363" y1="133.5" x2="523" y2="133.9" stroke="#a8987a" stroke-width="1.45" stroke-linecap="round"/><line x1="536" y1="133.5" x2="826" y2="134.0" stroke="#a8987a" stroke-width="1.45" stroke-linecap="round"/><line x1="865" y1="133.5" x2="1151" y2="133.6" stroke="#a8987a" stroke-width="1.45" stroke-linecap="round"/><line x1="1163" y1="133.5" x2="1458" y2="133.0" stroke="#a8987a" stroke-width="1.45" stroke-linecap="round"/><line x1="-27" y1="143.4" x2="263" y2="144.2" stroke="#a8987a" stroke-width="1.40" stroke-linecap="round"/><line x1="282" y1="143.4" x2="550" y2="142.8" stroke="#a8987a" stroke-width="1.40" stroke-linecap="round"/><line x1="575" y1="143.4" x2="866" y2="144.1" stroke="#a8987a" stroke-width="1.40" stroke-linecap="round"/><line x1="876" y1="143.4" x2="1122" y2="143.2" stroke="#a8987a" stroke-width="1.40" stroke-linecap="round"/><line x1="1153" y1="143.4" x2="1411" y2="142.9" stroke="#a8987a" stroke-width="1.40" stroke-linecap="round"/><line x1="-22" y1="153.6" x2="375" y2="153.0" stroke="#a8987a" stroke-width="1.36" stroke-linecap="round"/><line x1="402" y1="153.6" x2="676" y2="154.0" stroke="#a8987a" stroke-width="1.36" stroke-linecap="round"/><line x1="690" y1="153.6" x2="813" y2="154.4" stroke="#a8987a" stroke-width="1.36" stroke-linecap="round"/><line x1="837" y1="153.6" x2="1223" y2="154.1" stroke="#a8987a" stroke-width="1.36" stroke-linecap="round"/><line x1="1234" y1="153.6" x2="1417" y2="154.2" stroke="#a8987a" stroke-width="1.36" stroke-linecap="round"/><line x1="-23" y1="164.2" x2="165" y2="165.1" stroke="#a8987a" stroke-width="1.30" stroke-linecap="round"/><line x1="204" y1="164.2" x2="592" y2="163.7" stroke="#a8987a" stroke-width="1.30" stroke-linecap="round"/><line x1="619" y1="164.2" x2="919" y2="164.4" stroke="#a8987a" stroke-width="1.30" stroke-linecap="round"/><line x1="953" y1="164.2" x2="1165" y2="163.8" stroke="#a8987a" stroke-width="1.30" stroke-linecap="round"/><line x1="1175" y1="164.2" x2="1558" y2="164.1" stroke="#a8987a" stroke-width="1.30" stroke-linecap="round"/><line x1="-19" y1="175.2" x2="196" y2="175.1" stroke="#a8987a" stroke-width="1.25" stroke-linecap="round"/><line x1="209" y1="175.2" x2="448" y2="175.6" stroke="#a8987a" stroke-width="1.25" stroke-linecap="round"/><line x1="487" y1="175.2" x2="778" y2="175.9" stroke="#a8987a" stroke-width="1.25" stroke-linecap="round"/><line x1="808" y1="175.2" x2="1055" y2="174.8" stroke="#a8987a" stroke-width="1.25" stroke-linecap="round"/><line x1="1074" y1="175.2" x2="1232" y2="175.5" stroke="#a8987a" stroke-width="1.25" stroke-linecap="round"/><line x1="1242" y1="175.2" x2="1364" y2="176.0" stroke="#a8987a" stroke-width="1.25" stroke-linecap="round"/><line x1="-15" y1="186.5" x2="370" y2="185.6" stroke="#a8987a" stroke-width="1.20" stroke-linecap="round"/><line x1="397" y1="186.5" x2="644" y2="185.6" stroke="#a8987a" stroke-width="1.20" stroke-linecap="round"/><line x1="677" y1="186.5" x2="1020" y2="185.8" stroke="#a8987a" stroke-width="1.20" stroke-linecap="round"/><line x1="1033" y1="186.5" x2="1321" y2="187.2" stroke="#a8987a" stroke-width="1.20" stroke-linecap="round"/><line x1="-27" y1="198.3" x2="167" y2="198.0" stroke="#a8987a" stroke-width="1.14" stroke-linecap="round"/><line x1="204" y1="198.3" x2="540" y2="198.7" stroke="#a8987a" stroke-width="1.14" stroke-linecap="round"/><line x1="548" y1="198.3" x2="669" y2="198.4" stroke="#a8987a" stroke-width="1.14" stroke-linecap="round"/><line x1="679" y1="198.3" x2="823" y2="197.7" stroke="#a8987a" stroke-width="1.14" stroke-linecap="round"/><line x1="834" y1="198.3" x2="993" y2="198.4" stroke="#a8987a" stroke-width="1.14" stroke-linecap="round"/><line x1="1000" y1="198.3" x2="1305" y2="197.7" stroke="#a8987a" stroke-width="1.14" stroke-linecap="round"/><line x1="-1" y1="210.5" x2="340" y2="210.9" stroke="#a8987a" stroke-width="1.08" stroke-linecap="round"/><line x1="363" y1="210.5" x2="714" y2="210.7" stroke="#a8987a" stroke-width="1.08" stroke-linecap="round"/><line x1="753" y1="210.5" x2="970" y2="210.1" stroke="#a8987a" stroke-width="1.08" stroke-linecap="round"/><line x1="1001" y1="210.5" x2="1344" y2="210.7" stroke="#a8987a" stroke-width="1.08" stroke-linecap="round"/><line x1="-35" y1="223.2" x2="210" y2="223.7" stroke="#a8987a" stroke-width="1.02" stroke-linecap="round"/><line x1="247" y1="223.2" x2="451" y2="222.2" stroke="#a8987a" stroke-width="1.02" stroke-linecap="round"/><line x1="482" y1="223.2" x2="841" y2="223.5" stroke="#a8987a" stroke-width="1.02" stroke-linecap="round"/><line x1="862" y1="223.2" x2="1205" y2="222.5" stroke="#a8987a" stroke-width="1.02" stroke-linecap="round"/><line x1="1213" y1="223.2" x2="1488" y2="223.3" stroke="#a8987a" stroke-width="1.02" stroke-linecap="round"/><line x1="-38" y1="236.3" x2="190" y2="237.2" stroke="#a8987a" stroke-width="0.95" stroke-linecap="round"/><line x1="204" y1="236.3" x2="583" y2="236.4" stroke="#a8987a" stroke-width="0.95" stroke-linecap="round"/><line x1="622" y1="236.3" x2="853" y2="235.6" stroke="#a8987a" stroke-width="0.95" stroke-linecap="round"/><line x1="861" y1="236.3" x2="1185" y2="237.2" stroke="#a8987a" stroke-width="0.95" stroke-linecap="round"/><line x1="1220" y1="236.3" x2="1404" y2="235.8" stroke="#a8987a" stroke-width="0.95" stroke-linecap="round"/><line x1="-34" y1="249.9" x2="309" y2="250.8" stroke="#a8987a" stroke-width="0.89" stroke-linecap="round"/><line x1="340" y1="249.9" x2="592" y2="250.3" stroke="#a8987a" stroke-width="0.89" stroke-linecap="round"/><line x1="611" y1="249.9" x2="810" y2="249.9" stroke="#a8987a" stroke-width="0.89" stroke-linecap="round"/><line x1="838" y1="249.9" x2="1239" y2="249.7" stroke="#a8987a" stroke-width="0.89" stroke-linecap="round"/><line x1="1279" y1="249.9" x2="1569" y2="249.9" stroke="#a8987a" stroke-width="0.89" stroke-linecap="round"/><line x1="-21" y1="264.0" x2="346" y2="264.6" stroke="#a8987a" stroke-width="0.82" stroke-linecap="round"/><line x1="359" y1="264.0" x2="772" y2="264.2" stroke="#a8987a" stroke-width="0.82" stroke-linecap="round"/><line x1="809" y1="264.0" x2="1137" y2="263.5" stroke="#a8987a" stroke-width="0.82" stroke-linecap="round"/><line x1="1166" y1="264.0" x2="1426" y2="263.1" stroke="#a8987a" stroke-width="0.82" stroke-linecap="round"/><line x1="-18" y1="278.6" x2="368" y2="278.6" stroke="#a8987a" stroke-width="0.75" stroke-linecap="round"/><line x1="407" y1="278.6" x2="535" y2="279.0" stroke="#a8987a" stroke-width="0.75" stroke-linecap="round"/><line x1="552" y1="278.6" x2="948" y2="278.1" stroke="#a8987a" stroke-width="0.75" stroke-linecap="round"/><line x1="957" y1="278.6" x2="1293" y2="277.9" stroke="#a8987a" stroke-width="0.75" stroke-linecap="round"/><line x1="-15" y1="293.7" x2="310" y2="293.2" stroke="#a8987a" stroke-width="0.68" stroke-linecap="round"/><line x1="347" y1="293.7" x2="535" y2="293.6" stroke="#a8987a" stroke-width="0.68" stroke-linecap="round"/><line x1="546" y1="293.7" x2="771" y2="293.3" stroke="#a8987a" stroke-width="0.68" stroke-linecap="round"/><line x1="783" y1="293.7" x2="1046" y2="293.6" stroke="#a8987a" stroke-width="0.68" stroke-linecap="round"/><line x1="1081" y1="293.7" x2="1328" y2="293.8" stroke="#a8987a" stroke-width="0.68" stroke-linecap="round"/><line x1="-7" y1="309.4" x2="401" y2="309.0" stroke="#a8987a" stroke-width="0.60" stroke-linecap="round"/><line x1="421" y1="309.4" x2="543" y2="308.5" stroke="#a8987a" stroke-width="0.60" stroke-linecap="round"/><line x1="558" y1="309.4" x2="938" y2="309.2" stroke="#a8987a" stroke-width="0.60" stroke-linecap="round"/><line x1="969" y1="309.4" x2="1242" y2="309.6" stroke="#a8987a" stroke-width="0.60" stroke-linecap="round"/><line x1="1279" y1="309.4" x2="1670" y2="309.8" stroke="#a8987a" stroke-width="0.60" stroke-linecap="round"/><line x1="-31" y1="325.6" x2="136" y2="326.5" stroke="#a8987a" stroke-width="0.52" stroke-linecap="round"/><line x1="176" y1="325.6" x2="471" y2="325.9" stroke="#a8987a" stroke-width="0.52" stroke-linecap="round"/><line x1="483" y1="325.6" x2="727" y2="326.6" stroke="#a8987a" stroke-width="0.52" stroke-linecap="round"/><line x1="746" y1="325.6" x2="1021" y2="324.7" stroke="#a8987a" stroke-width="0.52" stroke-linecap="round"/><line x1="1048" y1="325.6" x2="1176" y2="324.8" stroke="#a8987a" stroke-width="0.52" stroke-linecap="round"/><line x1="1189" y1="325.6" x2="1581" y2="325.5" stroke="#a8987a" stroke-width="0.52" stroke-linecap="round"/><circle cx="1040" cy="110" r="60" fill="#e9dfc7" stroke="#16120e" stroke-width="2.0" stroke-linejoin="round" stroke-linecap="round" stroke-width="4"/><line x1="1112.0" y1="110.0" x2="1140.0" y2="110.0" stroke="#16120e" stroke-width="2.4" stroke-linecap="round"/><line x1="1109.546659492813" y1="128.6349712473815" x2="1136.5925826289067" y2="135.88190451025207" stroke="#16120e" stroke-width="2.4" stroke-linecap="round"/><line x1="1102.3538290724796" y1="146.0" x2="1126.6025403784438" y2="160.0" stroke="#16120e" stroke-width="2.4" stroke-linecap="round"/><line x1="1090.9116882454314" y1="160.91168824543144" x2="1110.7106781186549" y2="180.71067811865476" stroke="#16120e" stroke-width="2.4" stroke-linecap="round"/><line x1="1076.0" y1="172.35382907247958" x2="1090.0" y2="196.60254037844385" stroke="#16120e" stroke-width="2.4" stroke-linecap="round"/><line x1="1058.6349712473816" y1="179.54665949281292" x2="1065.881904510252" y2="206.59258262890683" stroke="#16120e" stroke-width="2.4" stroke-linecap="round"/><line x1="1040.0" y1="182.0" x2="1040.0" y2="210.0" stroke="#16120e" stroke-width="2.4" stroke-linecap="round"/><line x1="1021.3650287526185" y1="179.54665949281292" x2="1014.1180954897479" y2="206.59258262890683" stroke="#16120e" stroke-width="2.4" stroke-linecap="round"/><line x1="1004.0" y1="172.35382907247958" x2="990.0" y2="196.60254037844388" stroke="#16120e" stroke-width="2.4" stroke-linecap="round"/><line x1="989.0883117545686" y1="160.91168824543144" x2="969.2893218813452" y2="180.71067811865476" stroke="#16120e" stroke-width="2.4" stroke-linecap="round"/><line x1="977.6461709275204" y1="146.0" x2="953.3974596215561" y2="160.0" stroke="#16120e" stroke-width="2.4" stroke-linecap="round"/><line x1="970.4533405071871" y1="128.63497124738151" x2="943.4074173710932" y2="135.8819045102521" stroke="#16120e" stroke-width="2.4" stroke-linecap="round"/><line x1="968.0" y1="110.00000000000001" x2="940.0" y2="110.00000000000001" stroke="#16120e" stroke-width="2.4" stroke-linecap="round"/><line x1="970.453340507187" y1="91.3650287526185" x2="943.4074173710932" y2="84.11809548974792" stroke="#16120e" stroke-width="2.4" stroke-linecap="round"/><line x1="977.6461709275204" y1="74.0" x2="953.3974596215561" y2="59.999999999999986" stroke="#16120e" stroke-width="2.4" stroke-linecap="round"/><line x1="989.0883117545686" y1="59.08831175456858" x2="969.2893218813452" y2="39.28932188134526" stroke="#16120e" stroke-width="2.4" stroke-linecap="round"/><line x1="1004.0" y1="47.64617092752044" x2="990.0" y2="23.397459621556166" stroke="#16120e" stroke-width="2.4" stroke-linecap="round"/><line x1="1021.3650287526185" y1="40.45334050718708" x2="1014.1180954897479" y2="13.407417371093175" stroke="#16120e" stroke-width="2.4" stroke-linecap="round"/><line x1="1040.0" y1="38.0" x2="1040.0" y2="10.0" stroke="#16120e" stroke-width="2.4" stroke-linecap="round"/><line x1="1058.6349712473814" y1="40.45334050718708" x2="1065.881904510252" y2="13.40741737109316" stroke="#16120e" stroke-width="2.4" stroke-linecap="round"/><line x1="1076.0" y1="47.64617092752042" x2="1090.0" y2="23.397459621556138" stroke="#16120e" stroke-width="2.4" stroke-linecap="round"/><line x1="1090.9116882454314" y1="59.088311754568565" x2="1110.7106781186546" y2="39.28932188134523" stroke="#16120e" stroke-width="2.4" stroke-linecap="round"/><line x1="1102.3538290724796" y1="73.99999999999997" x2="1126.6025403784438" y2="59.99999999999996" stroke="#16120e" stroke-width="2.4" stroke-linecap="round"/><line x1="1109.546659492813" y1="91.36502875261851" x2="1136.5925826289067" y2="84.11809548974793" stroke="#16120e" stroke-width="2.4" stroke-linecap="round"/><path d="M0,360 Q300,300 640,340 T1280,330 L1280,720 L0,720 Z" fill="#d6c9a6"/><rect x="90" y="290" width="130" height="70" fill="#6f6350"/><polygon points="76,290 155.0,234.0 234,290" fill="#6f6350"/><rect x="300" y="290" width="130" height="70" fill="#6f6350"/><polygon points="286,290 365.0,234.0 444,290" fill="#6f6350"/><rect x="820" y="290" width="130" height="70" fill="#6f6350"/><polygon points="806,290 885.0,234.0 964,290" fill="#6f6350"/><rect x="1010" y="290" width="130" height="70" fill="#6f6350"/><polygon points="996,290 1075.0,234.0 1154,290" fill="#6f6350"/><path d="M614,380 L616,295.0 L602,244.0 M616,286.5 L622,210 M621,278.0 L640,235.5" stroke="#16120e" stroke-width="7" fill="none" stroke-linecap="round"/><rect x="613" y="295.0" width="12" height="85.0" fill="#16120e"/><ellipse cx="620" cy="244.0" rx="76.5" ry="54.4" fill="#3d6b35" stroke="#16120e" stroke-width="4"/><path d="M1194,380 L1196,305.0 L1182,260.0 M1196,297.5 L1202,230 M1201,290.0 L1220,252.5" stroke="#16120e" stroke-width="7" fill="none" stroke-linecap="round"/><rect x="1193" y="305.0" width="12" height="75.0" fill="#16120e"/><ellipse cx="1200" cy="260.0" rx="67.5" ry="48.0" fill="#3d6b35" stroke="#16120e" stroke-width="4"/><rect y="370" width="1280" height="350" fill="#d6c9a6"/><line x1="-6" y1="386.0" x2="290" y2="386.0" stroke="#6f6350" stroke-width="0.64" opacity="0.8"/><line x1="339" y1="386.0" x2="476" y2="386.0" stroke="#6f6350" stroke-width="0.64" opacity="0.8"/><line x1="511" y1="386.0" x2="654" y2="386.0" stroke="#6f6350" stroke-width="0.64" opacity="0.8"/><line x1="683" y1="386.0" x2="958" y2="386.0" stroke="#6f6350" stroke-width="0.64" opacity="0.8"/><line x1="988" y1="386.0" x2="1274" y2="386.0" stroke="#6f6350" stroke-width="0.64" opacity="0.8"/><line x1="-23" y1="404.8" x2="218" y2="404.8" stroke="#6f6350" stroke-width="0.78" opacity="0.8"/><line x1="263" y1="404.8" x2="534" y2="404.8" stroke="#6f6350" stroke-width="0.78" opacity="0.8"/><line x1="588" y1="404.8" x2="729" y2="404.8" stroke="#6f6350" stroke-width="0.78" opacity="0.8"/><line x1="749" y1="404.8" x2="1007" y2="404.8" stroke="#6f6350" stroke-width="0.78" opacity="0.8"/><line x1="1020" y1="404.8" x2="1182" y2="404.8" stroke="#6f6350" stroke-width="0.78" opacity="0.8"/><line x1="1240" y1="404.8" x2="1359" y2="404.8" stroke="#6f6350" stroke-width="0.78" opacity="0.8"/><line x1="-28" y1="423.1" x2="121" y2="423.1" stroke="#6f6350" stroke-width="0.90" opacity="0.8"/><line x1="143" y1="423.1" x2="348" y2="423.1" stroke="#6f6350" stroke-width="0.90" opacity="0.8"/><line x1="408" y1="423.1" x2="611" y2="423.1" stroke="#6f6350" stroke-width="0.90" opacity="0.8"/><line x1="642" y1="423.1" x2="786" y2="423.1" stroke="#6f6350" stroke-width="0.90" opacity="0.8"/><line x1="812" y1="423.1" x2="1007" y2="423.1" stroke="#6f6350" stroke-width="0.90" opacity="0.8"/><line x1="1032" y1="423.1" x2="1174" y2="423.1" stroke="#6f6350" stroke-width="0.90" opacity="0.8"/><line x1="1229" y1="423.1" x2="1417" y2="423.1" stroke="#6f6350" stroke-width="0.90" opacity="0.8"/><line x1="-21" y1="440.8" x2="113" y2="440.8" stroke="#6f6350" stroke-width="1.03" opacity="0.8"/><line x1="130" y1="440.8" x2="281" y2="440.8" stroke="#6f6350" stroke-width="1.03" opacity="0.8"/><line x1="304" y1="440.8" x2="429" y2="440.8" stroke="#6f6350" stroke-width="1.03" opacity="0.8"/><line x1="450" y1="440.8" x2="701" y2="440.8" stroke="#6f6350" stroke-width="1.03" opacity="0.8"/><line x1="718" y1="440.8" x2="853" y2="440.8" stroke="#6f6350" stroke-width="1.03" opacity="0.8"/><line x1="895" y1="440.8" x2="1059" y2="440.8" stroke="#6f6350" stroke-width="1.03" opacity="0.8"/><line x1="1072" y1="440.8" x2="1282" y2="440.8" stroke="#6f6350" stroke-width="1.03" opacity="0.8"/><line x1="-23" y1="458.0" x2="227" y2="458.0" stroke="#6f6350" stroke-width="1.15" opacity="0.8"/><line x1="239" y1="458.0" x2="345" y2="458.0" stroke="#6f6350" stroke-width="1.15" opacity="0.8"/><line x1="402" y1="458.0" x2="683" y2="458.0" stroke="#6f6350" stroke-width="1.15" opacity="0.8"/><line x1="706" y1="458.0" x2="952" y2="458.0" stroke="#6f6350" stroke-width="1.15" opacity="0.8"/><line x1="1004" y1="458.0" x2="1241" y2="458.0" stroke="#6f6350" stroke-width="1.15" opacity="0.8"/><line x1="-19" y1="474.7" x2="167" y2="474.7" stroke="#6f6350" stroke-width="1.27" opacity="0.8"/><line x1="200" y1="474.7" x2="430" y2="474.7" stroke="#6f6350" stroke-width="1.27" opacity="0.8"/><line x1="454" y1="474.7" x2="623" y2="474.7" stroke="#6f6350" stroke-width="1.27" opacity="0.8"/><line x1="671" y1="474.7" x2="954" y2="474.7" stroke="#6f6350" stroke-width="1.27" opacity="0.8"/><line x1="982" y1="474.7" x2="1184" y2="474.7" stroke="#6f6350" stroke-width="1.27" opacity="0.8"/><line x1="1211" y1="474.7" x2="1455" y2="474.7" stroke="#6f6350" stroke-width="1.27" opacity="0.8"/><line x1="-8" y1="491.0" x2="90" y2="491.0" stroke="#6f6350" stroke-width="1.38" opacity="0.8"/><line x1="111" y1="491.0" x2="387" y2="491.0" stroke="#6f6350" stroke-width="1.38" opacity="0.8"/><line x1="420" y1="491.0" x2="631" y2="491.0" stroke="#6f6350" stroke-width="1.38" opacity="0.8"/><line x1="659" y1="491.0" x2="891" y2="491.0" stroke="#6f6350" stroke-width="1.38" opacity="0.8"/><line x1="943" y1="491.0" x2="1183" y2="491.0" stroke="#6f6350" stroke-width="1.38" opacity="0.8"/><line x1="1227" y1="491.0" x2="1396" y2="491.0" stroke="#6f6350" stroke-width="1.38" opacity="0.8"/><line x1="-21" y1="506.7" x2="111" y2="506.7" stroke="#6f6350" stroke-width="1.49" opacity="0.8"/><line x1="128" y1="506.7" x2="302" y2="506.7" stroke="#6f6350" stroke-width="1.49" opacity="0.8"/><line x1="352" y1="506.7" x2="542" y2="506.7" stroke="#6f6350" stroke-width="1.49" opacity="0.8"/><line x1="571" y1="506.7" x2="797" y2="506.7" stroke="#6f6350" stroke-width="1.49" opacity="0.8"/><line x1="847" y1="506.7" x2="957" y2="506.7" stroke="#6f6350" stroke-width="1.49" opacity="0.8"/><line x1="978" y1="506.7" x2="1264" y2="506.7" stroke="#6f6350" stroke-width="1.49" opacity="0.8"/><line x1="-3" y1="522.0" x2="134" y2="522.0" stroke="#6f6350" stroke-width="1.60" opacity="0.8"/><line x1="172" y1="522.0" x2="358" y2="522.0" stroke="#6f6350" stroke-width="1.60" opacity="0.8"/><line x1="394" y1="522.0" x2="611" y2="522.0" stroke="#6f6350" stroke-width="1.60" opacity="0.8"/><line x1="636" y1="522.0" x2="849" y2="522.0" stroke="#6f6350" stroke-width="1.60" opacity="0.8"/><line x1="900" y1="522.0" x2="1070" y2="522.0" stroke="#6f6350" stroke-width="1.60" opacity="0.8"/><line x1="1122" y1="522.0" x2="1271" y2="522.0" stroke="#6f6350" stroke-width="1.60" opacity="0.8"/><line x1="-1" y1="536.8" x2="211" y2="536.8" stroke="#6f6350" stroke-width="1.71" opacity="0.8"/><line x1="260" y1="536.8" x2="435" y2="536.8" stroke="#6f6350" stroke-width="1.71" opacity="0.8"/><line x1="482" y1="536.8" x2="639" y2="536.8" stroke="#6f6350" stroke-width="1.71" opacity="0.8"/><line x1="658" y1="536.8" x2="942" y2="536.8" stroke="#6f6350" stroke-width="1.71" opacity="0.8"/><line x1="989" y1="536.8" x2="1181" y2="536.8" stroke="#6f6350" stroke-width="1.71" opacity="0.8"/><line x1="1197" y1="536.8" x2="1428" y2="536.8" stroke="#6f6350" stroke-width="1.71" opacity="0.8"/><line x1="-16" y1="551.2" x2="114" y2="551.2" stroke="#6f6350" stroke-width="1.81" opacity="0.8"/><line x1="128" y1="551.2" x2="302" y2="551.2" stroke="#6f6350" stroke-width="1.81" opacity="0.8"/><line x1="361" y1="551.2" x2="607" y2="551.2" stroke="#6f6350" stroke-width="1.81" opacity="0.8"/><line x1="662" y1="551.2" x2="912" y2="551.2" stroke="#6f6350" stroke-width="1.81" opacity="0.8"/><line x1="969" y1="551.2" x2="1050" y2="551.2" stroke="#6f6350" stroke-width="1.81" opacity="0.8"/><line x1="1109" y1="551.2" x2="1207" y2="551.2" stroke="#6f6350" stroke-width="1.81" opacity="0.8"/><line x1="1259" y1="551.2" x2="1407" y2="551.2" stroke="#6f6350" stroke-width="1.81" opacity="0.8"/><line x1="-10" y1="565.1" x2="249" y2="565.1" stroke="#6f6350" stroke-width="1.91" opacity="0.8"/><line x1="261" y1="565.1" x2="552" y2="565.1" stroke="#6f6350" stroke-width="1.91" opacity="0.8"/><line x1="598" y1="565.1" x2="788" y2="565.1" stroke="#6f6350" stroke-width="1.91" opacity="0.8"/><line x1="801" y1="565.1" x2="1095" y2="565.1" stroke="#6f6350" stroke-width="1.91" opacity="0.8"/><line x1="1125" y1="565.1" x2="1342" y2="565.1" stroke="#6f6350" stroke-width="1.91" opacity="0.8"/><line x1="-11" y1="578.7" x2="84" y2="578.7" stroke="#6f6350" stroke-width="2.00" opacity="0.8"/><line x1="112" y1="578.7" x2="220" y2="578.7" stroke="#6f6350" stroke-width="2.00" opacity="0.8"/><line x1="267" y1="578.7" x2="506" y2="578.7" stroke="#6f6350" stroke-width="2.00" opacity="0.8"/><line x1="521" y1="578.7" x2="739" y2="578.7" stroke="#6f6350" stroke-width="2.00" opacity="0.8"/><line x1="793" y1="578.7" x2="880" y2="578.7" stroke="#6f6350" stroke-width="2.00" opacity="0.8"/><line x1="894" y1="578.7" x2="991" y2="578.7" stroke="#6f6350" stroke-width="2.00" opacity="0.8"/><line x1="1035" y1="578.7" x2="1325" y2="578.7" stroke="#6f6350" stroke-width="2.00" opacity="0.8"/><line x1="-6" y1="591.9" x2="127" y2="591.9" stroke="#6f6350" stroke-width="2.10" opacity="0.8"/><line x1="174" y1="591.9" x2="262" y2="591.9" stroke="#6f6350" stroke-width="2.10" opacity="0.8"/><line x1="285" y1="591.9" x2="448" y2="591.9" stroke="#6f6350" stroke-width="2.10" opacity="0.8"/><line x1="503" y1="591.9" x2="678" y2="591.9" stroke="#6f6350" stroke-width="2.10" opacity="0.8"/><line x1="733" y1="591.9" x2="977" y2="591.9" stroke="#6f6350" stroke-width="2.10" opacity="0.8"/><line x1="989" y1="591.9" x2="1282" y2="591.9" stroke="#6f6350" stroke-width="2.10" opacity="0.8"/><line x1="-2" y1="604.6" x2="122" y2="604.6" stroke="#6f6350" stroke-width="2.19" opacity="0.8"/><line x1="177" y1="604.6" x2="298" y2="604.6" stroke="#6f6350" stroke-width="2.19" opacity="0.8"/><line x1="332" y1="604.6" x2="441" y2="604.6" stroke="#6f6350" stroke-width="2.19" opacity="0.8"/><line x1="470" y1="604.6" x2="726" y2="604.6" stroke="#6f6350" stroke-width="2.19" opacity="0.8"/><line x1="769" y1="604.6" x2="884" y2="604.6" stroke="#6f6350" stroke-width="2.19" opacity="0.8"/><line x1="900" y1="604.6" x2="1106" y2="604.6" stroke="#6f6350" stroke-width="2.19" opacity="0.8"/><line x1="1127" y1="604.6" x2="1289" y2="604.6" stroke="#6f6350" stroke-width="2.19" opacity="0.8"/><line x1="-12" y1="617.0" x2="94" y2="617.0" stroke="#6f6350" stroke-width="2.27" opacity="0.8"/><line x1="124" y1="617.0" x2="214" y2="617.0" stroke="#6f6350" stroke-width="2.27" opacity="0.8"/><line x1="234" y1="617.0" x2="379" y2="617.0" stroke="#6f6350" stroke-width="2.27" opacity="0.8"/><line x1="436" y1="617.0" x2="626" y2="617.0" stroke="#6f6350" stroke-width="2.27" opacity="0.8"/><line x1="644" y1="617.0" x2="911" y2="617.0" stroke="#6f6350" stroke-width="2.27" opacity="0.8"/><line x1="929" y1="617.0" x2="1209" y2="617.0" stroke="#6f6350" stroke-width="2.27" opacity="0.8"/><line x1="1247" y1="617.0" x2="1349" y2="617.0" stroke="#6f6350" stroke-width="2.27" opacity="0.8"/><line x1="-23" y1="629.0" x2="219" y2="629.0" stroke="#6f6350" stroke-width="2.36" opacity="0.8"/><line x1="252" y1="629.0" x2="469" y2="629.0" stroke="#6f6350" stroke-width="2.36" opacity="0.8"/><line x1="513" y1="629.0" x2="800" y2="629.0" stroke="#6f6350" stroke-width="2.36" opacity="0.8"/><line x1="853" y1="629.0" x2="962" y2="629.0" stroke="#6f6350" stroke-width="2.36" opacity="0.8"/><line x1="989" y1="629.0" x2="1091" y2="629.0" stroke="#6f6350" stroke-width="2.36" opacity="0.8"/><line x1="1147" y1="629.0" x2="1382" y2="629.0" stroke="#6f6350" stroke-width="2.36" opacity="0.8"/><line x1="-16" y1="640.7" x2="239" y2="640.7" stroke="#6f6350" stroke-width="2.44" opacity="0.8"/><line x1="273" y1="640.7" x2="360" y2="640.7" stroke="#6f6350" stroke-width="2.44" opacity="0.8"/><line x1="400" y1="640.7" x2="668" y2="640.7" stroke="#6f6350" stroke-width="2.44" opacity="0.8"/><line x1="715" y1="640.7" x2="952" y2="640.7" stroke="#6f6350" stroke-width="2.44" opacity="0.8"/><line x1="985" y1="640.7" x2="1097" y2="640.7" stroke="#6f6350" stroke-width="2.44" opacity="0.8"/><line x1="1130" y1="640.7" x2="1245" y2="640.7" stroke="#6f6350" stroke-width="2.44" opacity="0.8"/><line x1="1257" y1="640.7" x2="1557" y2="640.7" stroke="#6f6350" stroke-width="2.44" opacity="0.8"/><line x1="-11" y1="652.1" x2="86" y2="652.1" stroke="#6f6350" stroke-width="2.52" opacity="0.8"/><line x1="121" y1="652.1" x2="260" y2="652.1" stroke="#6f6350" stroke-width="2.52" opacity="0.8"/><line x1="285" y1="652.1" x2="577" y2="652.1" stroke="#6f6350" stroke-width="2.52" opacity="0.8"/><line x1="637" y1="652.1" x2="770" y2="652.1" stroke="#6f6350" stroke-width="2.52" opacity="0.8"/><line x1="820" y1="652.1" x2="938" y2="652.1" stroke="#6f6350" stroke-width="2.52" opacity="0.8"/><line x1="971" y1="652.1" x2="1084" y2="652.1" stroke="#6f6350" stroke-width="2.52" opacity="0.8"/><line x1="1120" y1="652.1" x2="1217" y2="652.1" stroke="#6f6350" stroke-width="2.52" opacity="0.8"/><line x1="1265" y1="652.1" x2="1551" y2="652.1" stroke="#6f6350" stroke-width="2.52" opacity="0.8"/><line x1="-12" y1="663.1" x2="113" y2="663.1" stroke="#6f6350" stroke-width="2.60" opacity="0.8"/><line x1="129" y1="663.1" x2="363" y2="663.1" stroke="#6f6350" stroke-width="2.60" opacity="0.8"/><line x1="378" y1="663.1" x2="551" y2="663.1" stroke="#6f6350" stroke-width="2.60" opacity="0.8"/><line x1="563" y1="663.1" x2="737" y2="663.1" stroke="#6f6350" stroke-width="2.60" opacity="0.8"/><line x1="778" y1="663.1" x2="986" y2="663.1" stroke="#6f6350" stroke-width="2.60" opacity="0.8"/><line x1="1005" y1="663.1" x2="1217" y2="663.1" stroke="#6f6350" stroke-width="2.60" opacity="0.8"/><line x1="1259" y1="663.1" x2="1377" y2="663.1" stroke="#6f6350" stroke-width="2.60" opacity="0.8"/><line x1="-1" y1="673.7" x2="246" y2="673.7" stroke="#6f6350" stroke-width="2.67" opacity="0.8"/><line x1="287" y1="673.7" x2="452" y2="673.7" stroke="#6f6350" stroke-width="2.67" opacity="0.8"/><line x1="488" y1="673.7" x2="693" y2="673.7" stroke="#6f6350" stroke-width="2.67" opacity="0.8"/><line x1="744" y1="673.7" x2="1000" y2="673.7" stroke="#6f6350" stroke-width="2.67" opacity="0.8"/><line x1="1059" y1="673.7" x2="1147" y2="673.7" stroke="#6f6350" stroke-width="2.67" opacity="0.8"/><line x1="1197" y1="673.7" x2="1468" y2="673.7" stroke="#6f6350" stroke-width="2.67" opacity="0.8"/><line x1="-9" y1="684.1" x2="207" y2="684.1" stroke="#6f6350" stroke-width="2.75" opacity="0.8"/><line x1="261" y1="684.1" x2="513" y2="684.1" stroke="#6f6350" stroke-width="2.75" opacity="0.8"/><line x1="557" y1="684.1" x2="813" y2="684.1" stroke="#6f6350" stroke-width="2.75" opacity="0.8"/><line x1="856" y1="684.1" x2="1088" y2="684.1" stroke="#6f6350" stroke-width="2.75" opacity="0.8"/><line x1="1146" y1="684.1" x2="1270" y2="684.1" stroke="#6f6350" stroke-width="2.75" opacity="0.8"/><line x1="-29" y1="694.1" x2="146" y2="694.1" stroke="#6f6350" stroke-width="2.82" opacity="0.8"/><line x1="174" y1="694.1" x2="358" y2="694.1" stroke="#6f6350" stroke-width="2.82" opacity="0.8"/><line x1="403" y1="694.1" x2="512" y2="694.1" stroke="#6f6350" stroke-width="2.82" opacity="0.8"/><line x1="547" y1="694.1" x2="633" y2="694.1" stroke="#6f6350" stroke-width="2.82" opacity="0.8"/><line x1="672" y1="694.1" x2="915" y2="694.1" stroke="#6f6350" stroke-width="2.82" opacity="0.8"/><line x1="925" y1="694.1" x2="1203" y2="694.1" stroke="#6f6350" stroke-width="2.82" opacity="0.8"/><line x1="1258" y1="694.1" x2="1509" y2="694.1" stroke="#6f6350" stroke-width="2.82" opacity="0.8"/><line x1="-29" y1="703.9" x2="159" y2="703.9" stroke="#6f6350" stroke-width="2.89" opacity="0.8"/><line x1="173" y1="703.9" x2="336" y2="703.9" stroke="#6f6350" stroke-width="2.89" opacity="0.8"/><line x1="356" y1="703.9" x2="497" y2="703.9" stroke="#6f6350" stroke-width="2.89" opacity="0.8"/><line x1="530" y1="703.9" x2="624" y2="703.9" stroke="#6f6350" stroke-width="2.89" opacity="0.8"/><line x1="660" y1="703.9" x2="762" y2="703.9" stroke="#6f6350" stroke-width="2.89" opacity="0.8"/><line x1="795" y1="703.9" x2="1037" y2="703.9" stroke="#6f6350" stroke-width="2.89" opacity="0.8"/><line x1="1063" y1="703.9" x2="1221" y2="703.9" stroke="#6f6350" stroke-width="2.89" opacity="0.8"/><line x1="1279" y1="703.9" x2="1378" y2="703.9" stroke="#6f6350" stroke-width="2.89" opacity="0.8"/><line x1="-13" y1="713.4" x2="118" y2="713.4" stroke="#6f6350" stroke-width="2.95" opacity="0.8"/><line x1="149" y1="713.4" x2="380" y2="713.4" stroke="#6f6350" stroke-width="2.95" opacity="0.8"/><line x1="425" y1="713.4" x2="546" y2="713.4" stroke="#6f6350" stroke-width="2.95" opacity="0.8"/><line x1="585" y1="713.4" x2="791" y2="713.4" stroke="#6f6350" stroke-width="2.95" opacity="0.8"/><line x1="815" y1="713.4" x2="1050" y2="713.4" stroke="#6f6350" stroke-width="2.95" opacity="0.8"/><line x1="1070" y1="713.4" x2="1264" y2="713.4" stroke="#6f6350" stroke-width="2.95" opacity="0.8"/></svg>
