<svg xmlns="http://www.w3.org/2000/svg" width="1280" height="720" viewBox="0 0 1280 720"><defs><clipPath id="c1"><path d="M20,28 Q20,24 25,24 L39,24 Q44,24 44,28 L42.5,44 L21.5,44 Z" fill="#000"/></clipPath><clipPath id="c2"><circle cx="32" cy="15.5" r="7.8" fill="#000"/></clipPath></defs><rect x="0" y="0" width="1280" height="720" rx="0" fill="#d9ccad"/><line x1="-0" y1="0.0" x2="399" y2="0.3" stroke="#16120e" stroke-width="3.10" stroke-linecap="round"/><line x1="417" y1="0.0" x2="665" y2="-0.3" stroke="#16120e" stroke-width="3.10" stroke-linecap="round"/><line x1="695" y1="0.0" x2="1013" y2="0.2" stroke="#16120e" stroke-width="3.10" stroke-linecap="round"/><line x1="1043" y1="0.0" x2="1443" y2="-0.1" stroke="#16120e" stroke-width="3.10" stroke-linecap="round"/><line x1="-7" y1="5.0" x2="248" y2="6.0" stroke="#16120e" stroke-width="3.07" stroke-linecap="round"/><line x1="255" y1="5.0" x2="527" y2="4.8" stroke="#16120e" stroke-width="3.07" stroke-linecap="round"/><line x1="560" y1="5.0" x2="828" y2="4.5" stroke="#16120e" stroke-width="3.07" stroke-linecap="round"/><line x1="868" y1="5.0" x2="1281" y2="4.1" stroke="#16120e" stroke-width="3.07" stroke-linecap="round"/><line x1="-26" y1="10.1" x2="309" y2="10.8" stroke="#16120e" stroke-width="3.04" stroke-linecap="round"/><line x1="325" y1="10.1" x2="488" y2="10.4" stroke="#16120e" stroke-width="3.04" stroke-linecap="round"/><line x1="497" y1="10.1" x2="621" y2="10.7" stroke="#16120e" stroke-width="3.04" stroke-linecap="round"/><line x1="635" y1="10.1" x2="918" y2="10.0" stroke="#16120e" stroke-width="3.04" stroke-linecap="round"/><line x1="945" y1="10.1" x2="1086" y2="9.4" stroke="#16120e" stroke-width="3.04" stroke-linecap="round"/><line x1="1117" y1="10.1" x2="1294" y2="9.2" stroke="#16120e" stroke-width="3.04" stroke-linecap="round"/><line x1="-33" y1="15.4" x2="244" y2="15.9" stroke="#16120e" stroke-width="3.01" stroke-linecap="round"/><line x1="274" y1="15.4" x2="412" y2="15.1" stroke="#16120e" stroke-width="3.01" stroke-linecap="round"/><line x1="432" y1="15.4" x2="747" y2="16.1" stroke="#16120e" stroke-width="3.01" stroke-linecap="round"/><line x1="766" y1="15.4" x2="1095" y2="16.3" stroke="#16120e" stroke-width="3.01" stroke-linecap="round"/><line x1="1127" y1="15.4" x2="1357" y2="14.9" stroke="#16120e" stroke-width="3.01" stroke-linecap="round"/><line x1="-9" y1="20.8" x2="238" y2="21.5" stroke="#16120e" stroke-width="2.99" stroke-linecap="round"/><line x1="269" y1="20.8" x2="618" y2="21.2" stroke="#16120e" stroke-width="2.99" stroke-linecap="round"/><line x1="656" y1="20.8" x2="797" y2="19.9" stroke="#16120e" stroke-width="2.99" stroke-linecap="round"/><line x1="827" y1="20.8" x2="1126" y2="21.6" stroke="#16120e" stroke-width="2.99" stroke-linecap="round"/><line x1="1166" y1="20.8" x2="1550" y2="21.7" stroke="#16120e" stroke-width="2.99" stroke-linecap="round"/><line x1="-27" y1="26.3" x2="329" y2="26.2" stroke="#16120e" stroke-width="2.95" stroke-linecap="round"/><line x1="343" y1="26.3" x2="691" y2="26.4" stroke="#16120e" stroke-width="2.95" stroke-linecap="round"/><line x1="711" y1="26.3" x2="899" y2="25.7" stroke="#16120e" stroke-width="2.95" stroke-linecap="round"/><line x1="906" y1="26.3" x2="1123" y2="25.5" stroke="#16120e" stroke-width="2.95" stroke-linecap="round"/><line x1="1156" y1="26.3" x2="1351" y2="27.0" stroke="#16120e" stroke-width="2.95" stroke-linecap="round"/><line x1="-15" y1="32.0" x2="114" y2="32.4" stroke="#16120e" stroke-width="2.92" stroke-linecap="round"/><line x1="137" y1="32.0" x2="507" y2="32.7" stroke="#16120e" stroke-width="2.92" stroke-linecap="round"/><line x1="525" y1="32.0" x2="698" y2="31.1" stroke="#16120e" stroke-width="2.92" stroke-linecap="round"/><line x1="730" y1="32.0" x2="868" y2="32.0" stroke="#16120e" stroke-width="2.92" stroke-linecap="round"/><line x1="900" y1="32.0" x2="1075" y2="32.4" stroke="#16120e" stroke-width="2.92" stroke-linecap="round"/><line x1="1112" y1="32.0" x2="1280" y2="31.5" stroke="#16120e" stroke-width="2.92" stroke-linecap="round"/><line x1="-22" y1="37.8" x2="238" y2="38.4" stroke="#16120e" stroke-width="2.89" stroke-linecap="round"/><line x1="275" y1="37.8" x2="405" y2="38.0" stroke="#16120e" stroke-width="2.89" stroke-linecap="round"/><line x1="434" y1="37.8" x2="751" y2="38.6" stroke="#16120e" stroke-width="2.89" stroke-linecap="round"/><line x1="760" y1="37.8" x2="1014" y2="37.9" stroke="#16120e" stroke-width="2.89" stroke-linecap="round"/><line x1="1053" y1="37.8" x2="1448" y2="37.1" stroke="#16120e" stroke-width="2.89" stroke-linecap="round"/><line x1="-3" y1="43.8" x2="316" y2="43.1" stroke="#16120e" stroke-width="2.86" stroke-linecap="round"/><line x1="343" y1="43.8" x2="671" y2="44.4" stroke="#16120e" stroke-width="2.86" stroke-linecap="round"/><line x1="680" y1="43.8" x2="820" y2="44.6" stroke="#16120e" stroke-width="2.86" stroke-linecap="round"/><line x1="858" y1="43.8" x2="1111" y2="44.3" stroke="#16120e" stroke-width="2.86" stroke-linecap="round"/><line x1="1138" y1="43.8" x2="1498" y2="43.1" stroke="#16120e" stroke-width="2.86" stroke-linecap="round"/><line x1="-35" y1="49.9" x2="127" y2="50.2" stroke="#16120e" stroke-width="2.82" stroke-linecap="round"/><line x1="144" y1="49.9" x2="533" y2="49.0" stroke="#16120e" stroke-width="2.82" stroke-linecap="round"/><line x1="570" y1="49.9" x2="912" y2="49.6" stroke="#16120e" stroke-width="2.82" stroke-linecap="round"/><line x1="950" y1="49.9" x2="1218" y2="50.3" stroke="#16120e" stroke-width="2.82" stroke-linecap="round"/><line x1="1237" y1="49.9" x2="1368" y2="49.5" stroke="#16120e" stroke-width="2.82" stroke-linecap="round"/><line x1="-6" y1="56.2" x2="319" y2="57.0" stroke="#16120e" stroke-width="2.79" stroke-linecap="round"/><line x1="341" y1="56.2" x2="517" y2="55.6" stroke="#16120e" stroke-width="2.79" stroke-linecap="round"/><line x1="550" y1="56.2" x2="764" y2="57.0" stroke="#16120e" stroke-width="2.79" stroke-linecap="round"/><line x1="786" y1="56.2" x2="1156" y2="56.3" stroke="#16120e" stroke-width="2.79" stroke-linecap="round"/><line x1="1164" y1="56.2" x2="1469" y2="55.8" stroke="#16120e" stroke-width="2.79" stroke-linecap="round"/><line x1="-28" y1="62.6" x2="251" y2="62.1" stroke="#16120e" stroke-width="2.75" stroke-linecap="round"/><line x1="285" y1="62.6" x2="461" y2="63.3" stroke="#16120e" stroke-width="2.75" stroke-linecap="round"/><line x1="484" y1="62.6" x2="889" y2="63.3" stroke="#16120e" stroke-width="2.75" stroke-linecap="round"/><line x1="910" y1="62.6" x2="1283" y2="63.6" stroke="#16120e" stroke-width="2.75" stroke-linecap="round"/><line x1="-18" y1="69.2" x2="297" y2="69.6" stroke="#16120e" stroke-width="2.72" stroke-linecap="round"/><line x1="309" y1="69.2" x2="541" y2="69.7" stroke="#16120e" stroke-width="2.72" stroke-linecap="round"/><line x1="553" y1="69.2" x2="933" y2="69.0" stroke="#16120e" stroke-width="2.72" stroke-linecap="round"/><line x1="941" y1="69.2" x2="1154" y2="69.9" stroke="#16120e" stroke-width="2.72" stroke-linecap="round"/><line x1="1189" y1="69.2" x2="1412" y2="68.2" stroke="#16120e" stroke-width="2.72" stroke-linecap="round"/><line x1="-23" y1="76.0" x2="127" y2="75.0" stroke="#16120e" stroke-width="2.68" stroke-linecap="round"/><line x1="138" y1="76.0" x2="483" y2="75.0" stroke="#16120e" stroke-width="2.68" stroke-linecap="round"/><line x1="517" y1="76.0" x2="905" y2="76.4" stroke="#16120e" stroke-width="2.68" stroke-linecap="round"/><line x1="937" y1="76.0" x2="1279" y2="76.3" stroke="#16120e" stroke-width="2.68" stroke-linecap="round"/><line x1="-33" y1="82.9" x2="263" y2="82.3" stroke="#16120e" stroke-width="2.64" stroke-linecap="round"/><line x1="280" y1="82.9" x2="667" y2="82.4" stroke="#16120e" stroke-width="2.64" stroke-linecap="round"/><line x1="692" y1="82.9" x2="937" y2="82.6" stroke="#16120e" stroke-width="2.64" stroke-linecap="round"/><line x1="974" y1="82.9" x2="1292" y2="81.9" stroke="#16120e" stroke-width="2.64" stroke-linecap="round"/><line x1="-8" y1="90.0" x2="277" y2="89.9" stroke="#16120e" stroke-width="2.60" stroke-linecap="round"/><line x1="312" y1="90.0" x2="731" y2="90.7" stroke="#16120e" stroke-width="2.60" stroke-linecap="round"/><line x1="753" y1="90.0" x2="1003" y2="89.7" stroke="#16120e" stroke-width="2.60" stroke-linecap="round"/><line x1="1013" y1="90.0" x2="1319" y2="90.3" stroke="#16120e" stroke-width="2.60" stroke-linecap="round"/><line x1="-29" y1="97.3" x2="150" y2="98.3" stroke="#16120e" stroke-width="2.56" stroke-linecap="round"/><line x1="185" y1="97.3" x2="486" y2="98.0" stroke="#16120e" stroke-width="2.56" stroke-linecap="round"/><line x1="523" y1="97.3" x2="838" y2="96.8" stroke="#16120e" stroke-width="2.56" stroke-linecap="round"/><line x1="868" y1="97.3" x2="1062" y2="96.7" stroke="#16120e" stroke-width="2.56" stroke-linecap="round"/><line x1="1076" y1="97.3" x2="1271" y2="97.2" stroke="#16120e" stroke-width="2.56" stroke-linecap="round"/><line x1="-29" y1="104.8" x2="271" y2="104.4" stroke="#16120e" stroke-width="2.52" stroke-linecap="round"/><line x1="296" y1="104.8" x2="511" y2="105.0" stroke="#16120e" stroke-width="2.52" stroke-linecap="round"/><line x1="523" y1="104.8" x2="931" y2="105.0" stroke="#16120e" stroke-width="2.52" stroke-linecap="round"/><line x1="967" y1="104.8" x2="1369" y2="104.1" stroke="#16120e" stroke-width="2.52" stroke-linecap="round"/><line x1="-18" y1="112.5" x2="277" y2="112.8" stroke="#16120e" stroke-width="2.48" stroke-linecap="round"/><line x1="290" y1="112.5" x2="432" y2="112.0" stroke="#16120e" stroke-width="2.48" stroke-linecap="round"/><line x1="470" y1="112.5" x2="661" y2="111.5" stroke="#16120e" stroke-width="2.48" stroke-linecap="round"/><line x1="697" y1="112.5" x2="1104" y2="111.6" stroke="#16120e" stroke-width="2.48" stroke-linecap="round"/><line x1="1134" y1="112.5" x2="1304" y2="113.3" stroke="#16120e" stroke-width="2.48" stroke-linecap="round"/><line x1="-6" y1="120.3" x2="150" y2="119.8" stroke="#16120e" stroke-width="2.43" stroke-linecap="round"/><line x1="189" y1="120.3" x2="598" y2="120.6" stroke="#16120e" stroke-width="2.43" stroke-linecap="round"/><line x1="635" y1="120.3" x2="819" y2="119.9" stroke="#16120e" stroke-width="2.43" stroke-linecap="round"/><line x1="849" y1="120.3" x2="1174" y2="119.6" stroke="#16120e" stroke-width="2.43" stroke-linecap="round"/><line x1="1192" y1="120.3" x2="1408" y2="121.2" stroke="#16120e" stroke-width="2.43" stroke-linecap="round"/><line x1="-6" y1="128.4" x2="414" y2="129.3" stroke="#16120e" stroke-width="2.39" stroke-linecap="round"/><line x1="421" y1="128.4" x2="753" y2="128.6" stroke="#16120e" stroke-width="2.39" stroke-linecap="round"/><line x1="779" y1="128.4" x2="1195" y2="128.9" stroke="#16120e" stroke-width="2.39" stroke-linecap="round"/><line x1="1231" y1="128.4" x2="1622" y2="128.4" stroke="#16120e" stroke-width="2.39" stroke-linecap="round"/><line x1="-28" y1="136.7" x2="205" y2="137.2" stroke="#16120e" stroke-width="2.34" stroke-linecap="round"/><line x1="229" y1="136.7" x2="515" y2="136.9" stroke="#16120e" stroke-width="2.34" stroke-linecap="round"/><line x1="522" y1="136.7" x2="743" y2="136.1" stroke="#16120e" stroke-width="2.34" stroke-linecap="round"/><line x1="759" y1="136.7" x2="911" y2="137.4" stroke="#16120e" stroke-width="2.34" stroke-linecap="round"/><line x1="950" y1="136.7" x2="1200" y2="135.9" stroke="#16120e" stroke-width="2.34" stroke-linecap="round"/><line x1="1210" y1="136.7" x2="1565" y2="137.5" stroke="#16120e" stroke-width="2.34" stroke-linecap="round"/><line x1="-16" y1="145.2" x2="332" y2="144.8" stroke="#16120e" stroke-width="2.30" stroke-linecap="round"/><line x1="351" y1="145.2" x2="501" y2="145.6" stroke="#16120e" stroke-width="2.30" stroke-linecap="round"/><line x1="539" y1="145.2" x2="885" y2="145.9" stroke="#16120e" stroke-width="2.30" stroke-linecap="round"/><line x1="908" y1="145.2" x2="1315" y2="145.1" stroke="#16120e" stroke-width="2.30" stroke-linecap="round"/><line x1="-33" y1="153.9" x2="171" y2="154.2" stroke="#16120e" stroke-width="2.25" stroke-linecap="round"/><line x1="182" y1="153.9" x2="528" y2="153.8" stroke="#16120e" stroke-width="2.25" stroke-linecap="round"/><line x1="545" y1="153.9" x2="716" y2="153.3" stroke="#16120e" stroke-width="2.25" stroke-linecap="round"/><line x1="748" y1="153.9" x2="1133" y2="154.3" stroke="#16120e" stroke-width="2.25" stroke-linecap="round"/><line x1="1153" y1="153.9" x2="1487" y2="154.5" stroke="#16120e" stroke-width="2.25" stroke-linecap="round"/><line x1="-33" y1="162.8" x2="106" y2="163.6" stroke="#16120e" stroke-width="2.20" stroke-linecap="round"/><line x1="144" y1="162.8" x2="524" y2="163.1" stroke="#16120e" stroke-width="2.20" stroke-linecap="round"/><line x1="535" y1="162.8" x2="847" y2="163.7" stroke="#16120e" stroke-width="2.20" stroke-linecap="round"/><line x1="857" y1="162.8" x2="1227" y2="163.1" stroke="#16120e" stroke-width="2.20" stroke-linecap="round"/><line x1="1260" y1="162.8" x2="1641" y2="163.3" stroke="#16120e" stroke-width="2.20" stroke-linecap="round"/><line x1="-16" y1="172.0" x2="384" y2="172.4" stroke="#16120e" stroke-width="2.15" stroke-linecap="round"/><line x1="403" y1="172.0" x2="573" y2="171.6" stroke="#16120e" stroke-width="2.15" stroke-linecap="round"/><line x1="591" y1="172.0" x2="766" y2="171.2" stroke="#16120e" stroke-width="2.15" stroke-linecap="round"/><line x1="777" y1="172.0" x2="902" y2="171.8" stroke="#16120e" stroke-width="2.15" stroke-linecap="round"/><line x1="938" y1="172.0" x2="1270" y2="172.1" stroke="#16120e" stroke-width="2.15" stroke-linecap="round"/><line x1="-32" y1="181.4" x2="338" y2="182.1" stroke="#16120e" stroke-width="2.10" stroke-linecap="round"/><line x1="346" y1="181.4" x2="758" y2="180.8" stroke="#16120e" stroke-width="2.10" stroke-linecap="round"/><line x1="764" y1="181.4" x2="1075" y2="182.1" stroke="#16120e" stroke-width="2.10" stroke-linecap="round"/><line x1="1088" y1="181.4" x2="1210" y2="181.2" stroke="#16120e" stroke-width="2.10" stroke-linecap="round"/><line x1="1216" y1="181.4" x2="1428" y2="181.2" stroke="#16120e" stroke-width="2.10" stroke-linecap="round"/><line x1="-0" y1="191.0" x2="206" y2="191.0" stroke="#16120e" stroke-width="2.04" stroke-linecap="round"/><line x1="228" y1="191.0" x2="547" y2="191.4" stroke="#16120e" stroke-width="2.04" stroke-linecap="round"/><line x1="576" y1="191.0" x2="777" y2="191.9" stroke="#16120e" stroke-width="2.04" stroke-linecap="round"/><line x1="808" y1="191.0" x2="1054" y2="190.9" stroke="#16120e" stroke-width="2.04" stroke-linecap="round"/><line x1="1089" y1="191.0" x2="1307" y2="191.6" stroke="#16120e" stroke-width="2.04" stroke-linecap="round"/><line x1="-37" y1="200.9" x2="137" y2="200.9" stroke="#16120e" stroke-width="1.99" stroke-linecap="round"/><line x1="174" y1="200.9" x2="577" y2="200.4" stroke="#16120e" stroke-width="1.99" stroke-linecap="round"/><line x1="590" y1="200.9" x2="886" y2="201.5" stroke="#16120e" stroke-width="1.99" stroke-linecap="round"/><line x1="894" y1="200.9" x2="1151" y2="200.6" stroke="#16120e" stroke-width="1.99" stroke-linecap="round"/><line x1="1169" y1="200.9" x2="1570" y2="201.8" stroke="#16120e" stroke-width="1.99" stroke-linecap="round"/><line x1="-39" y1="211.0" x2="250" y2="211.8" stroke="#16120e" stroke-width="1.93" stroke-linecap="round"/><line x1="258" y1="211.0" x2="495" y2="210.8" stroke="#16120e" stroke-width="1.93" stroke-linecap="round"/><line x1="513" y1="211.0" x2="639" y2="210.9" stroke="#16120e" stroke-width="1.93" stroke-linecap="round"/><line x1="674" y1="211.0" x2="901" y2="210.2" stroke="#16120e" stroke-width="1.93" stroke-linecap="round"/><line x1="933" y1="211.0" x2="1062" y2="210.8" stroke="#16120e" stroke-width="1.93" stroke-linecap="round"/><line x1="1076" y1="211.0" x2="1259" y2="210.8" stroke="#16120e" stroke-width="1.93" stroke-linecap="round"/><line x1="-29" y1="221.4" x2="216" y2="221.3" stroke="#16120e" stroke-width="1.88" stroke-linecap="round"/><line x1="237" y1="221.4" x2="605" y2="220.5" stroke="#16120e" stroke-width="1.88" stroke-linecap="round"/><line x1="615" y1="221.4" x2="785" y2="221.7" stroke="#16120e" stroke-width="1.88" stroke-linecap="round"/><line x1="799" y1="221.4" x2="1120" y2="220.5" stroke="#16120e" stroke-width="1.88" stroke-linecap="round"/><line x1="1139" y1="221.4" x2="1524" y2="221.5" stroke="#16120e" stroke-width="1.88" stroke-linecap="round"/><line x1="-10" y1="232.0" x2="302" y2="231.3" stroke="#16120e" stroke-width="1.82" stroke-linecap="round"/><line x1="324" y1="232.0" x2="469" y2="232.6" stroke="#16120e" stroke-width="1.82" stroke-linecap="round"/><line x1="495" y1="232.0" x2="703" y2="231.7" stroke="#16120e" stroke-width="1.82" stroke-linecap="round"/><line x1="709" y1="232.0" x2="1087" y2="231.4" stroke="#16120e" stroke-width="1.82" stroke-linecap="round"/><line x1="1111" y1="232.0" x2="1415" y2="232.5" stroke="#16120e" stroke-width="1.82" stroke-linecap="round"/><line x1="-11" y1="243.0" x2="319" y2="242.4" stroke="#16120e" stroke-width="1.76" stroke-linecap="round"/><line x1="357" y1="243.0" x2="748" y2="242.4" stroke="#16120e" stroke-width="1.76" stroke-linecap="round"/><line x1="755" y1="243.0" x2="921" y2="243.4" stroke="#16120e" stroke-width="1.76" stroke-linecap="round"/><line x1="955" y1="243.0" x2="1245" y2="243.7" stroke="#16120e" stroke-width="1.76" stroke-linecap="round"/><line x1="1272" y1="243.0" x2="1455" y2="242.2" stroke="#16120e" stroke-width="1.76" stroke-linecap="round"/><line x1="-8" y1="254.2" x2="132" y2="255.1" stroke="#16120e" stroke-width="1.69" stroke-linecap="round"/><line x1="170" y1="254.2" x2="447" y2="254.0" stroke="#16120e" stroke-width="1.69" stroke-linecap="round"/><line x1="462" y1="254.2" x2="769" y2="253.4" stroke="#16120e" stroke-width="1.69" stroke-linecap="round"/><line x1="799" y1="254.2" x2="1024" y2="254.8" stroke="#16120e" stroke-width="1.69" stroke-linecap="round"/><line x1="1046" y1="254.2" x2="1272" y2="255.0" stroke="#16120e" stroke-width="1.69" stroke-linecap="round"/><line x1="-6" y1="265.7" x2="172" y2="265.5" stroke="#16120e" stroke-width="1.63" stroke-linecap="round"/><line x1="198" y1="265.7" x2="380" y2="266.1" stroke="#16120e" stroke-width="1.63" stroke-linecap="round"/><line x1="386" y1="265.7" x2="578" y2="266.5" stroke="#16120e" stroke-width="1.63" stroke-linecap="round"/><line x1="607" y1="265.7" x2="933" y2="265.6" stroke="#16120e" stroke-width="1.63" stroke-linecap="round"/><line x1="961" y1="265.7" x2="1185" y2="265.1" stroke="#16120e" stroke-width="1.63" stroke-linecap="round"/><line x1="1222" y1="265.7" x2="1621" y2="264.9" stroke="#16120e" stroke-width="1.63" stroke-linecap="round"/><line x1="-27" y1="277.4" x2="203" y2="277.3" stroke="#16120e" stroke-width="1.57" stroke-linecap="round"/><line x1="215" y1="277.4" x2="457" y2="278.3" stroke="#16120e" stroke-width="1.57" stroke-linecap="round"/><line x1="482" y1="277.4" x2="779" y2="276.9" stroke="#16120e" stroke-width="1.57" stroke-linecap="round"/><line x1="798" y1="277.4" x2="1048" y2="277.3" stroke="#16120e" stroke-width="1.57" stroke-linecap="round"/><line x1="1066" y1="277.4" x2="1469" y2="277.0" stroke="#16120e" stroke-width="1.57" stroke-linecap="round"/><line x1="-23" y1="289.5" x2="207" y2="288.6" stroke="#16120e" stroke-width="1.50" stroke-linecap="round"/><line x1="227" y1="289.5" x2="637" y2="288.9" stroke="#16120e" stroke-width="1.50" stroke-linecap="round"/><line x1="677" y1="289.5" x2="883" y2="290.3" stroke="#16120e" stroke-width="1.50" stroke-linecap="round"/><line x1="920" y1="289.5" x2="1169" y2="290.4" stroke="#16120e" stroke-width="1.50" stroke-linecap="round"/><line x1="1205" y1="289.5" x2="1595" y2="289.3" stroke="#16120e" stroke-width="1.50" stroke-linecap="round"/><line x1="-32" y1="301.9" x2="135" y2="301.3" stroke="#16120e" stroke-width="1.43" stroke-linecap="round"/><line x1="164" y1="301.9" x2="396" y2="302.0" stroke="#16120e" stroke-width="1.43" stroke-linecap="round"/><line x1="410" y1="301.9" x2="592" y2="301.5" stroke="#16120e" stroke-width="1.43" stroke-linecap="round"/><line x1="629" y1="301.9" x2="755" y2="301.1" stroke="#16120e" stroke-width="1.43" stroke-linecap="round"/><line x1="764" y1="301.9" x2="1032" y2="302.9" stroke="#16120e" stroke-width="1.43" stroke-linecap="round"/><line x1="1061" y1="301.9" x2="1325" y2="302.2" stroke="#16120e" stroke-width="1.43" stroke-linecap="round"/><line x1="-18" y1="314.6" x2="383" y2="314.6" stroke="#16120e" stroke-width="1.36" stroke-linecap="round"/><line x1="415" y1="314.6" x2="717" y2="314.0" stroke="#16120e" stroke-width="1.36" stroke-linecap="round"/><line x1="739" y1="314.6" x2="929" y2="314.4" stroke="#16120e" stroke-width="1.36" stroke-linecap="round"/><line x1="964" y1="314.6" x2="1137" y2="313.6" stroke="#16120e" stroke-width="1.36" stroke-linecap="round"/><line x1="1146" y1="314.6" x2="1297" y2="314.1" stroke="#16120e" stroke-width="1.36" stroke-linecap="round"/><line x1="-17" y1="327.7" x2="333" y2="328.1" stroke="#16120e" stroke-width="1.29" stroke-linecap="round"/><line x1="355" y1="327.7" x2="716" y2="327.1" stroke="#16120e" stroke-width="1.29" stroke-linecap="round"/><line x1="755" y1="327.7" x2="1039" y2="327.3" stroke="#16120e" stroke-width="1.29" stroke-linecap="round"/><line x1="1072" y1="327.7" x2="1256" y2="326.7" stroke="#16120e" stroke-width="1.29" stroke-linecap="round"/><line x1="-24" y1="341.0" x2="299" y2="341.1" stroke="#16120e" stroke-width="1.21" stroke-linecap="round"/><line x1="324" y1="341.0" x2="674" y2="341.9" stroke="#16120e" stroke-width="1.21" stroke-linecap="round"/><line x1="712" y1="341.0" x2="878" y2="341.9" stroke="#16120e" stroke-width="1.21" stroke-linecap="round"/><line x1="891" y1="341.0" x2="1127" y2="341.2" stroke="#16120e" stroke-width="1.21" stroke-linecap="round"/><line x1="1135" y1="341.0" x2="1282" y2="341.9" stroke="#16120e" stroke-width="1.21" stroke-linecap="round"/><line x1="-37" y1="354.7" x2="340" y2="353.8" stroke="#16120e" stroke-width="1.14" stroke-linecap="round"/><line x1="368" y1="354.7" x2="518" y2="354.3" stroke="#16120e" stroke-width="1.14" stroke-linecap="round"/><line x1="542" y1="354.7" x2="720" y2="355.5" stroke="#16120e" stroke-width="1.14" stroke-linecap="round"/><line x1="728" y1="354.7" x2="923" y2="354.4" stroke="#16120e" stroke-width="1.14" stroke-linecap="round"/><line x1="930" y1="354.7" x2="1177" y2="354.6" stroke="#16120e" stroke-width="1.14" stroke-linecap="round"/><line x1="1211" y1="354.7" x2="1483" y2="353.8" stroke="#16120e" stroke-width="1.14" stroke-linecap="round"/><line x1="-37" y1="368.8" x2="100" y2="368.4" stroke="#16120e" stroke-width="1.06" stroke-linecap="round"/><line x1="125" y1="368.8" x2="345" y2="369.6" stroke="#16120e" stroke-width="1.06" stroke-linecap="round"/><line x1="374" y1="368.8" x2="642" y2="368.4" stroke="#16120e" stroke-width="1.06" stroke-linecap="round"/><line x1="673" y1="368.8" x2="1006" y2="368.6" stroke="#16120e" stroke-width="1.06" stroke-linecap="round"/><line x1="1030" y1="368.8" x2="1381" y2="369.3" stroke="#16120e" stroke-width="1.06" stroke-linecap="round"/><line x1="-29" y1="383.2" x2="187" y2="383.3" stroke="#16120e" stroke-width="0.98" stroke-linecap="round"/><line x1="213" y1="383.2" x2="442" y2="384.2" stroke="#16120e" stroke-width="0.98" stroke-linecap="round"/><line x1="464" y1="383.2" x2="854" y2="384.0" stroke="#16120e" stroke-width="0.98" stroke-linecap="round"/><line x1="877" y1="383.2" x2="1185" y2="383.3" stroke="#16120e" stroke-width="0.98" stroke-linecap="round"/><line x1="1200" y1="383.2" x2="1400" y2="383.6" stroke="#16120e" stroke-width="0.98" stroke-linecap="round"/><line x1="-33" y1="398.0" x2="360" y2="397.2" stroke="#16120e" stroke-width="0.90" stroke-linecap="round"/><line x1="382" y1="398.0" x2="710" y2="397.2" stroke="#16120e" stroke-width="0.90" stroke-linecap="round"/><line x1="721" y1="398.0" x2="972" y2="397.8" stroke="#16120e" stroke-width="0.90" stroke-linecap="round"/><line x1="1009" y1="398.0" x2="1323" y2="397.5" stroke="#16120e" stroke-width="0.90" stroke-linecap="round"/><line x1="-11" y1="413.1" x2="217" y2="413.2" stroke="#16120e" stroke-width="0.81" stroke-linecap="round"/><line x1="230" y1="413.1" x2="631" y2="413.3" stroke="#16120e" stroke-width="0.81" stroke-linecap="round"/><line x1="648" y1="413.1" x2="1012" y2="412.3" stroke="#16120e" stroke-width="0.81" stroke-linecap="round"/><line x1="1044" y1="413.1" x2="1313" y2="413.6" stroke="#16120e" stroke-width="0.81" stroke-linecap="round"/><line x1="-8" y1="428.7" x2="332" y2="428.2" stroke="#16120e" stroke-width="0.73" stroke-linecap="round"/><line x1="351" y1="428.7" x2="638" y2="428.2" stroke="#16120e" stroke-width="0.73" stroke-linecap="round"/><line x1="674" y1="428.7" x2="860" y2="429.7" stroke="#16120e" stroke-width="0.73" stroke-linecap="round"/><line x1="887" y1="428.7" x2="1153" y2="427.7" stroke="#16120e" stroke-width="0.73" stroke-linecap="round"/><line x1="1189" y1="428.7" x2="1433" y2="428.4" stroke="#16120e" stroke-width="0.73" stroke-linecap="round"/><line x1="-0" y1="444.6" x2="265" y2="445.4" stroke="#16120e" stroke-width="0.64" stroke-linecap="round"/><line x1="292" y1="444.6" x2="580" y2="445.0" stroke="#16120e" stroke-width="0.64" stroke-linecap="round"/><line x1="596" y1="444.6" x2="766" y2="445.4" stroke="#16120e" stroke-width="0.64" stroke-linecap="round"/><line x1="782" y1="444.6" x2="1200" y2="443.9" stroke="#16120e" stroke-width="0.64" stroke-linecap="round"/><line x1="1234" y1="444.6" x2="1593" y2="443.9" stroke="#16120e" stroke-width="0.64" stroke-linecap="round"/><line x1="-30" y1="461.0" x2="146" y2="460.4" stroke="#16120e" stroke-width="0.55" stroke-linecap="round"/><line x1="153" y1="461.0" x2="367" y2="460.6" stroke="#16120e" stroke-width="0.55" stroke-linecap="round"/><line x1="377" y1="461.0" x2="797" y2="461.3" stroke="#16120e" stroke-width="0.55" stroke-linecap="round"/><line x1="826" y1="461.0" x2="1202" y2="461.4" stroke="#16120e" stroke-width="0.55" stroke-linecap="round"/><line x1="1236" y1="461.0" x2="1498" y2="460.7" stroke="#16120e" stroke-width="0.55" stroke-linecap="round"/><circle cx="900" cy="400" r="78" fill="#a3261f" stroke="#16120e" stroke-width="2.0" stroke-linejoin="round" stroke-linecap="round" stroke-width="4"/><path d="M0,470 Q260,400 520,440 Q780,480 1040,420 Q1180,390 1280,410 L1280,720 L0,720 Z" fill="#cfc2a2"/><path d="M760,432 Q800,380 870,400 Q930,420 960,440 Z" fill="#16120e"/><rect x="846" y="250" width="10" height="170" rx="0" fill="#16120e"/><rect x="846" y="250" width="70" height="10" rx="0" fill="#16120e"/><line x1="856" y1="290" x2="886" y2="260" stroke="#16120e" stroke-width="7" stroke-linecap="round"/><line x1="904" y1="260" x2="904" y2="300" stroke="#16120e" stroke-width="2" stroke-linecap="round"/><path d="M892,300 L916,300 L918,350 L890,350 Z" fill="none" stroke="#16120e" stroke-width="3" stroke-linejoin="round" stroke-linecap="round"/><path d="M930,245 q9,-9 18,0 q9,-9 18,0" fill="none" stroke="#16120e" stroke-width="3.5"/><path d="M960,215 q9,-9 18,0 q9,-9 18,0" fill="none" stroke="#16120e" stroke-width="3.5"/><path d="M1010,240 q9,-9 18,0 q9,-9 18,0" fill="none" stroke="#16120e" stroke-width="3.5"/><path d="M880,205 q9,-9 18,0 q9,-9 18,0" fill="none" stroke="#16120e" stroke-width="3.5"/><polygon points="560,720 720,720 648,440 638,440" fill="#e9dfc7"/><line x1="560" y1="720" x2="638" y2="440" stroke="#16120e" stroke-width="2" stroke-linecap="round"/><line x1="720" y1="720" x2="648" y2="440" stroke="#16120e" stroke-width="2" stroke-linecap="round"/><line x1="-36" y1="486.0" x2="62" y2="486.0" stroke="#6f6350" stroke-width="0.66" opacity="0.8"/><line x1="95" y1="486.0" x2="217" y2="486.0" stroke="#6f6350" stroke-width="0.66" opacity="0.8"/><line x1="248" y1="486.0" x2="417" y2="486.0" stroke="#6f6350" stroke-width="0.66" opacity="0.8"/><line x1="465" y1="486.0" x2="585" y2="486.0" stroke="#6f6350" stroke-width="0.66" opacity="0.8"/><line x1="638" y1="486.0" x2="921" y2="486.0" stroke="#6f6350" stroke-width="0.66" opacity="0.8"/><line x1="971" y1="486.0" x2="1126" y2="486.0" stroke="#6f6350" stroke-width="0.66" opacity="0.8"/><line x1="1178" y1="486.0" x2="1270" y2="486.0" stroke="#6f6350" stroke-width="0.66" opacity="0.8"/><line x1="-13" y1="504.8" x2="197" y2="504.8" stroke="#6f6350" stroke-width="0.85" opacity="0.8"/><line x1="254" y1="504.8" x2="404" y2="504.8" stroke="#6f6350" stroke-width="0.85" opacity="0.8"/><line x1="418" y1="504.8" x2="566" y2="504.8" stroke="#6f6350" stroke-width="0.85" opacity="0.8"/><line x1="624" y1="504.8" x2="842" y2="504.8" stroke="#6f6350" stroke-width="0.85" opacity="0.8"/><line x1="901" y1="504.8" x2="1050" y2="504.8" stroke="#6f6350" stroke-width="0.85" opacity="0.8"/><line x1="1096" y1="504.8" x2="1362" y2="504.8" stroke="#6f6350" stroke-width="0.85" opacity="0.8"/><line x1="-31" y1="522.7" x2="95" y2="522.7" stroke="#6f6350" stroke-width="1.03" opacity="0.8"/><line x1="145" y1="522.7" x2="252" y2="522.7" stroke="#6f6350" stroke-width="1.03" opacity="0.8"/><line x1="297" y1="522.7" x2="563" y2="522.7" stroke="#6f6350" stroke-width="1.03" opacity="0.8"/><line x1="582" y1="522.7" x2="799" y2="522.7" stroke="#6f6350" stroke-width="1.03" opacity="0.8"/><line x1="834" y1="522.7" x2="1045" y2="522.7" stroke="#6f6350" stroke-width="1.03" opacity="0.8"/><line x1="1068" y1="522.7" x2="1327" y2="522.7" stroke="#6f6350" stroke-width="1.03" opacity="0.8"/><line x1="-17" y1="539.9" x2="86" y2="539.9" stroke="#6f6350" stroke-width="1.20" opacity="0.8"/><line x1="135" y1="539.9" x2="279" y2="539.9" stroke="#6f6350" stroke-width="1.20" opacity="0.8"/><line x1="309" y1="539.9" x2="570" y2="539.9" stroke="#6f6350" stroke-width="1.20" opacity="0.8"/><line x1="591" y1="539.9" x2="778" y2="539.9" stroke="#6f6350" stroke-width="1.20" opacity="0.8"/><line x1="806" y1="539.9" x2="923" y2="539.9" stroke="#6f6350" stroke-width="1.20" opacity="0.8"/><line x1="969" y1="539.9" x2="1075" y2="539.9" stroke="#6f6350" stroke-width="1.20" opacity="0.8"/><line x1="1109" y1="539.9" x2="1233" y2="539.9" stroke="#6f6350" stroke-width="1.20" opacity="0.8"/><line x1="1260" y1="539.9" x2="1433" y2="539.9" stroke="#6f6350" stroke-width="1.20" opacity="0.8"/><line x1="-4" y1="556.4" x2="192" y2="556.4" stroke="#6f6350" stroke-width="1.36" opacity="0.8"/><line x1="249" y1="556.4" x2="518" y2="556.4" stroke="#6f6350" stroke-width="1.36" opacity="0.8"/><line x1="577" y1="556.4" x2="701" y2="556.4" stroke="#6f6350" stroke-width="1.36" opacity="0.8"/><line x1="739" y1="556.4" x2="1023" y2="556.4" stroke="#6f6350" stroke-width="1.36" opacity="0.8"/><line x1="1039" y1="556.4" x2="1210" y2="556.4" stroke="#6f6350" stroke-width="1.36" opacity="0.8"/><line x1="1262" y1="556.4" x2="1487" y2="556.4" stroke="#6f6350" stroke-width="1.36" opacity="0.8"/><line x1="-40" y1="572.3" x2="144" y2="572.3" stroke="#6f6350" stroke-width="1.52" opacity="0.8"/><line x1="174" y1="572.3" x2="272" y2="572.3" stroke="#6f6350" stroke-width="1.52" opacity="0.8"/><line x1="316" y1="572.3" x2="580" y2="572.3" stroke="#6f6350" stroke-width="1.52" opacity="0.8"/><line x1="635" y1="572.3" x2="818" y2="572.3" stroke="#6f6350" stroke-width="1.52" opacity="0.8"/><line x1="831" y1="572.3" x2="1078" y2="572.3" stroke="#6f6350" stroke-width="1.52" opacity="0.8"/><line x1="1106" y1="572.3" x2="1202" y2="572.3" stroke="#6f6350" stroke-width="1.52" opacity="0.8"/><line x1="1240" y1="572.3" x2="1467" y2="572.3" stroke="#6f6350" stroke-width="1.52" opacity="0.8"/><line x1="-3" y1="587.4" x2="240" y2="587.4" stroke="#6f6350" stroke-width="1.67" opacity="0.8"/><line x1="273" y1="587.4" x2="544" y2="587.4" stroke="#6f6350" stroke-width="1.67" opacity="0.8"/><line x1="565" y1="587.4" x2="709" y2="587.4" stroke="#6f6350" stroke-width="1.67" opacity="0.8"/><line x1="722" y1="587.4" x2="992" y2="587.4" stroke="#6f6350" stroke-width="1.67" opacity="0.8"/><line x1="1033" y1="587.4" x2="1243" y2="587.4" stroke="#6f6350" stroke-width="1.67" opacity="0.8"/><line x1="-10" y1="601.9" x2="174" y2="601.9" stroke="#6f6350" stroke-width="1.82" opacity="0.8"/><line x1="184" y1="601.9" x2="278" y2="601.9" stroke="#6f6350" stroke-width="1.82" opacity="0.8"/><line x1="294" y1="601.9" x2="448" y2="601.9" stroke="#6f6350" stroke-width="1.82" opacity="0.8"/><line x1="502" y1="601.9" x2="715" y2="601.9" stroke="#6f6350" stroke-width="1.82" opacity="0.8"/><line x1="751" y1="601.9" x2="961" y2="601.9" stroke="#6f6350" stroke-width="1.82" opacity="0.8"/><line x1="992" y1="601.9" x2="1243" y2="601.9" stroke="#6f6350" stroke-width="1.82" opacity="0.8"/><line x1="1260" y1="601.9" x2="1538" y2="601.9" stroke="#6f6350" stroke-width="1.82" opacity="0.8"/><line x1="-33" y1="615.9" x2="148" y2="615.9" stroke="#6f6350" stroke-width="1.96" opacity="0.8"/><line x1="159" y1="615.9" x2="276" y2="615.9" stroke="#6f6350" stroke-width="1.96" opacity="0.8"/><line x1="327" y1="615.9" x2="585" y2="615.9" stroke="#6f6350" stroke-width="1.96" opacity="0.8"/><line x1="606" y1="615.9" x2="754" y2="615.9" stroke="#6f6350" stroke-width="1.96" opacity="0.8"/><line x1="808" y1="615.9" x2="1044" y2="615.9" stroke="#6f6350" stroke-width="1.96" opacity="0.8"/><line x1="1087" y1="615.9" x2="1269" y2="615.9" stroke="#6f6350" stroke-width="1.96" opacity="0.8"/><line x1="-7" y1="629.2" x2="263" y2="629.2" stroke="#6f6350" stroke-width="2.09" opacity="0.8"/><line x1="295" y1="629.2" x2="446" y2="629.2" stroke="#6f6350" stroke-width="2.09" opacity="0.8"/><line x1="463" y1="629.2" x2="615" y2="629.2" stroke="#6f6350" stroke-width="2.09" opacity="0.8"/><line x1="669" y1="629.2" x2="840" y2="629.2" stroke="#6f6350" stroke-width="2.09" opacity="0.8"/><line x1="892" y1="629.2" x2="992" y2="629.2" stroke="#6f6350" stroke-width="2.09" opacity="0.8"/><line x1="1023" y1="629.2" x2="1299" y2="629.2" stroke="#6f6350" stroke-width="2.09" opacity="0.8"/><line x1="-9" y1="642.0" x2="284" y2="642.0" stroke="#6f6350" stroke-width="2.22" opacity="0.8"/><line x1="302" y1="642.0" x2="502" y2="642.0" stroke="#6f6350" stroke-width="2.22" opacity="0.8"/><line x1="516" y1="642.0" x2="629" y2="642.0" stroke="#6f6350" stroke-width="2.22" opacity="0.8"/><line x1="650" y1="642.0" x2="913" y2="642.0" stroke="#6f6350" stroke-width="2.22" opacity="0.8"/><line x1="934" y1="642.0" x2="1217" y2="642.0" stroke="#6f6350" stroke-width="2.22" opacity="0.8"/><line x1="1234" y1="642.0" x2="1527" y2="642.0" stroke="#6f6350" stroke-width="2.22" opacity="0.8"/><line x1="-29" y1="654.2" x2="51" y2="654.2" stroke="#6f6350" stroke-width="2.34" opacity="0.8"/><line x1="92" y1="654.2" x2="245" y2="654.2" stroke="#6f6350" stroke-width="2.34" opacity="0.8"/><line x1="295" y1="654.2" x2="534" y2="654.2" stroke="#6f6350" stroke-width="2.34" opacity="0.8"/><line x1="555" y1="654.2" x2="754" y2="654.2" stroke="#6f6350" stroke-width="2.34" opacity="0.8"/><line x1="765" y1="654.2" x2="867" y2="654.2" stroke="#6f6350" stroke-width="2.34" opacity="0.8"/><line x1="894" y1="654.2" x2="1180" y2="654.2" stroke="#6f6350" stroke-width="2.34" opacity="0.8"/><line x1="1226" y1="654.2" x2="1368" y2="654.2" stroke="#6f6350" stroke-width="2.34" opacity="0.8"/><line x1="-13" y1="666.0" x2="96" y2="666.0" stroke="#6f6350" stroke-width="2.46" opacity="0.8"/><line x1="147" y1="666.0" x2="434" y2="666.0" stroke="#6f6350" stroke-width="2.46" opacity="0.8"/><line x1="468" y1="666.0" x2="597" y2="666.0" stroke="#6f6350" stroke-width="2.46" opacity="0.8"/><line x1="631" y1="666.0" x2="723" y2="666.0" stroke="#6f6350" stroke-width="2.46" opacity="0.8"/><line x1="780" y1="666.0" x2="971" y2="666.0" stroke="#6f6350" stroke-width="2.46" opacity="0.8"/><line x1="995" y1="666.0" x2="1203" y2="666.0" stroke="#6f6350" stroke-width="2.46" opacity="0.8"/><line x1="1230" y1="666.0" x2="1336" y2="666.0" stroke="#6f6350" stroke-width="2.46" opacity="0.8"/><line x1="-3" y1="677.2" x2="266" y2="677.2" stroke="#6f6350" stroke-width="2.57" opacity="0.8"/><line x1="280" y1="677.2" x2="549" y2="677.2" stroke="#6f6350" stroke-width="2.57" opacity="0.8"/><line x1="574" y1="677.2" x2="819" y2="677.2" stroke="#6f6350" stroke-width="2.57" opacity="0.8"/><line x1="851" y1="677.2" x2="961" y2="677.2" stroke="#6f6350" stroke-width="2.57" opacity="0.8"/><line x1="979" y1="677.2" x2="1191" y2="677.2" stroke="#6f6350" stroke-width="2.57" opacity="0.8"/><line x1="1235" y1="677.2" x2="1357" y2="677.2" stroke="#6f6350" stroke-width="2.57" opacity="0.8"/><line x1="-19" y1="688.0" x2="208" y2="688.0" stroke="#6f6350" stroke-width="2.68" opacity="0.8"/><line x1="222" y1="688.0" x2="329" y2="688.0" stroke="#6f6350" stroke-width="2.68" opacity="0.8"/><line x1="385" y1="688.0" x2="622" y2="688.0" stroke="#6f6350" stroke-width="2.68" opacity="0.8"/><line x1="641" y1="688.0" x2="832" y2="688.0" stroke="#6f6350" stroke-width="2.68" opacity="0.8"/><line x1="882" y1="688.0" x2="1053" y2="688.0" stroke="#6f6350" stroke-width="2.68" opacity="0.8"/><line x1="1078" y1="688.0" x2="1213" y2="688.0" stroke="#6f6350" stroke-width="2.68" opacity="0.8"/><line x1="1262" y1="688.0" x2="1360" y2="688.0" stroke="#6f6350" stroke-width="2.68" opacity="0.8"/><line x1="-21" y1="698.3" x2="83" y2="698.3" stroke="#6f6350" stroke-width="2.78" opacity="0.8"/><line x1="122" y1="698.3" x2="343" y2="698.3" stroke="#6f6350" stroke-width="2.78" opacity="0.8"/><line x1="381" y1="698.3" x2="572" y2="698.3" stroke="#6f6350" stroke-width="2.78" opacity="0.8"/><line x1="598" y1="698.3" x2="684" y2="698.3" stroke="#6f6350" stroke-width="2.78" opacity="0.8"/><line x1="736" y1="698.3" x2="868" y2="698.3" stroke="#6f6350" stroke-width="2.78" opacity="0.8"/><line x1="921" y1="698.3" x2="1198" y2="698.3" stroke="#6f6350" stroke-width="2.78" opacity="0.8"/><line x1="1223" y1="698.3" x2="1500" y2="698.3" stroke="#6f6350" stroke-width="2.78" opacity="0.8"/><line x1="-16" y1="708.2" x2="221" y2="708.2" stroke="#6f6350" stroke-width="2.88" opacity="0.8"/><line x1="253" y1="708.2" x2="532" y2="708.2" stroke="#6f6350" stroke-width="2.88" opacity="0.8"/><line x1="587" y1="708.2" x2="791" y2="708.2" stroke="#6f6350" stroke-width="2.88" opacity="0.8"/><line x1="832" y1="708.2" x2="1114" y2="708.2" stroke="#6f6350" stroke-width="2.88" opacity="0.8"/><line x1="1163" y1="708.2" x2="1305" y2="708.2" stroke="#6f6350" stroke-width="2.88" opacity="0.8"/><line x1="-8" y1="717.7" x2="146" y2="717.7" stroke="#6f6350" stroke-width="2.98" opacity="0.8"/><line x1="192" y1="717.7" x2="392" y2="717.7" stroke="#6f6350" stroke-width="2.98" opacity="0.8"/><line x1="445" y1="717.7" x2="568" y2="717.7" stroke="#6f6350" stroke-width="2.98" opacity="0.8"/><line x1="588" y1="717.7" x2="691" y2="717.7" stroke="#6f6350" stroke-width="2.98" opacity="0.8"/><line x1="744" y1="717.7" x2="957" y2="717.7" stroke="#6f6350" stroke-width="2.98" opacity="0.8"/><line x1="1011" y1="717.7" x2="1163" y2="717.7" stroke="#6f6350" stroke-width="2.98" opacity="0.8"/><line x1="1205" y1="717.7" x2="1489" y2="717.7" stroke="#6f6350" stroke-width="2.98" opacity="0.8"/><g transform="translate(622,500) scale(0.62)"><ellipse cx="32" cy="59" rx="15" ry="3.5" fill="#16120e" opacity="0.3"/><rect x="25" y="42" width="6" height="15" rx="1.5" fill="#6f6350" stroke="#16120e" stroke-width="2.0" stroke-linejoin="round" stroke-linecap="round"/><rect x="24.5" y="54" width="7" height="4.5" rx="1.5" fill="#16120e"/><rect x="33" y="42" width="6" height="15" rx="1.5" fill="#6f6350" stroke="#16120e" stroke-width="2.0" stroke-linejoin="round" stroke-linecap="round"/><rect x="32.5" y="54" width="7" height="4.5" rx="1.5" fill="#16120e"/><path d="M20,28 Q20,24 25,24 L39,24 Q44,24 44,28 L42.5,44 L21.5,44 Z" fill="#6f6350" stroke="#16120e" stroke-width="2.0" stroke-linejoin="round" stroke-linecap="round"/><g clip-path="url(#c1)" stroke="#16120e" stroke-width="0.8" opacity="1.0" stroke-linecap="round"><line x1="12.0" y1="24" x2="34.0" y2="46"/><line x1="14.4" y1="24" x2="36.4" y2="46"/><line x1="16.8" y1="24" x2="38.8" y2="46"/><line x1="19.2" y1="24" x2="41.2" y2="46"/><line x1="21.6" y1="24" x2="43.6" y2="46"/><line x1="24.0" y1="24" x2="46.0" y2="46"/><line x1="26.4" y1="24" x2="48.4" y2="46"/><line x1="28.8" y1="24" x2="50.8" y2="46"/><line x1="31.2" y1="24" x2="53.2" y2="46"/><line x1="33.6" y1="24" x2="55.6" y2="46"/><line x1="36.0" y1="24" x2="58.0" y2="46"/><line x1="38.4" y1="24" x2="60.4" y2="46"/><line x1="40.8" y1="24" x2="62.8" y2="46"/><line x1="43.2" y1="24" x2="65.2" y2="46"/><line x1="45.6" y1="24" x2="67.6" y2="46"/><line x1="48.0" y1="24" x2="70.0" y2="46"/><line x1="50.4" y1="24" x2="72.4" y2="46"/><line x1="52.8" y1="24" x2="74.8" y2="46"/><line x1="55.2" y1="24" x2="77.2" y2="46"/><line x1="57.6" y1="24" x2="79.6" y2="46"/><line x1="60.0" y1="24" x2="82.0" y2="46"/><line x1="62.4" y1="24" x2="84.4" y2="46"/><line x1="64.8" y1="24" x2="86.8" y2="46"/><line x1="67.2" y1="24" x2="89.2" y2="46"/><line x1="69.6" y1="24" x2="91.6" y2="46"/></g><line x1="23" y1="27" x2="23" y2="43" stroke="#16120e" stroke-width="0.7" stroke-linecap="round"/><line x1="27" y1="27" x2="27" y2="43" stroke="#16120e" stroke-width="0.7" stroke-linecap="round"/><line x1="31" y1="27" x2="31" y2="43" stroke="#16120e" stroke-width="0.7" stroke-linecap="round"/><line x1="35" y1="27" x2="35" y2="43" stroke="#16120e" stroke-width="0.7" stroke-linecap="round"/><line x1="39" y1="27" x2="39" y2="43" stroke="#16120e" stroke-width="0.7" stroke-linecap="round"/><line x1="43" y1="27" x2="43" y2="43" stroke="#16120e" stroke-width="0.7" stroke-linecap="round"/><rect x="21.0" y="36.4" width="22.0" height="2.6" rx="0" fill="#16120e"/><line x1="22.5" y1="34.0" x2="16.5" y2="51" stroke="#a8987a" stroke-width="3.2" stroke-linecap="round"/><line x1="20.0" y1="36.4" x2="24.5" y2="38.4" stroke="#16120e" stroke-width="1.4" stroke-linecap="round"/><circle cx="25.711151050205395" cy="35.796126055327136" r="0.9699551665480792" fill="#a3261f"/><circle cx="34.49408092630867" cy="37.26296547394497" r="0.6655288592398131" fill="#a3261f"/><circle cx="20.31603179731698" cy="41.07444347773628" r="0.8593540143280076" fill="#a3261f"/><circle cx="25.623943065120713" cy="43.92160703918833" r="1.0702635075224478" fill="#a3261f"/><circle cx="40.07507483058533" cy="34.57435775658803" r="1.239068140544162" fill="#a3261f"/><rect x="15.3" y="25" width="6.4" height="15.600000000000001" rx="3" fill="#6f6350" stroke="#16120e" stroke-width="2.0" stroke-linejoin="round" stroke-linecap="round"/><circle cx="18.5" cy="41.1" r="2.6" fill="#e9dfc7" stroke="#16120e" stroke-width="2.0" stroke-linejoin="round" stroke-linecap="round" stroke-width="1.4"/><rect x="29.5" y="20.3" width="5" height="5" rx="0" fill="#e9dfc7" stroke="#16120e" stroke-width="2.0" stroke-linejoin="round" stroke-linecap="round" stroke-width="1.4"/><circle cx="32" cy="15.5" r="7.8" fill="#e9dfc7" stroke="#16120e" stroke-width="2.0" stroke-linejoin="round" stroke-linecap="round"/><g clip-path="url(#c2)" stroke="#16120e" stroke-width="0.45" opacity="0.5" stroke-linecap="round"><line x1="20.3" y1="7.7" x2="35.9" y2="23.3"/><line x1="22.3" y1="7.7" x2="37.9" y2="23.3"/><line x1="24.3" y1="7.7" x2="39.9" y2="23.3"/><line x1="26.3" y1="7.7" x2="41.9" y2="23.3"/><line x1="28.3" y1="7.7" x2="43.9" y2="23.3"/><line x1="30.3" y1="7.7" x2="45.9" y2="23.3"/><line x1="32.3" y1="7.7" x2="47.9" y2="23.3"/><line x1="34.3" y1="7.7" x2="49.9" y2="23.3"/><line x1="36.3" y1="7.7" x2="51.9" y2="23.3"/><line x1="38.3" y1="7.7" x2="53.9" y2="23.3"/><line x1="40.3" y1="7.7" x2="55.9" y2="23.3"/><line x1="42.3" y1="7.7" x2="57.9" y2="23.3"/><line x1="44.3" y1="7.7" x2="59.9" y2="23.3"/><line x1="46.3" y1="7.7" x2="61.9" y2="23.3"/><line x1="48.3" y1="7.7" x2="63.9" y2="23.3"/><line x1="50.3" y1="7.7" x2="65.9" y2="23.3"/><line x1="52.3" y1="7.7" x2="67.9" y2="23.3"/><line x1="54.3" y1="7.7" x2="69.9" y2="23.3"/><line x1="56.3" y1="7.7" x2="71.9" y2="23.3"/><line x1="58.3" y1="7.7" x2="73.9" y2="23.3"/></g><path d="M23.599999999999998,16.5 Q23.2,5.2 32,6.1 Q40.8,5.2 40.4,16.5 L38.0,13.0 Q32,8.9 26.0,13.0 Z" fill="#16120e" stroke="#16120e" stroke-width="1.2" stroke-linejoin="round" stroke-linecap="round"/><line x1="29" y1="7.3" x2="33" y2="6.5" stroke="#e9dfc7" stroke-width="0.7" stroke-linecap="round" opacity="0.7"/><polygon points="25.2,12.5 29,14.5 31,11.5 34,14.5 36,11.5 38.8,13.5 38.8,10.5 25.2,10.5" fill="#16120e"/><circle cx="29" cy="16.3" r="1.05" fill="#16120e"/><circle cx="35" cy="16.3" r="1.05" fill="#16120e"/><line x1="27" y1="13.700000000000001" x2="30.5" y2="14.700000000000001" stroke="#16120e" stroke-width="1.1" stroke-linecap="round"/><line x1="37" y1="13.700000000000001" x2="33.5" y2="14.700000000000001" stroke="#16120e" stroke-width="1.1" stroke-linecap="round"/><path d="M30.2,20.3 L33.8,20.3" fill="none" stroke="#16120e" stroke-width="1" stroke-linejoin="round" stroke-linecap="round"/><circle cx="37.45021720055827" cy="18.64169668796321" r="0.45" fill="#16120e"/><circle cx="36.69229856737469" cy="19.82136921100387" r="0.45" fill="#16120e"/><circle cx="35.57083655688882" cy="20.782451617312265" r="0.45" fill="#16120e"/><circle cx="34.17271824181229" cy="21.45048250192058" r="0.45" fill="#16120e"/><circle cx="32.60626508695239" cy="21.77370509776771" r="0.45" fill="#16120e"/><circle cx="30.992840569531804" cy="21.727077214458596" r="0.45" fill="#16120e"/><circle cx="29.45744734862335" cy="21.314211422236" r="0.45" fill="#16120e"/><circle cx="28.119042483118623" cy="20.567095162291494" r="0.45" fill="#16120e"/><circle cx="27.08132104229273" cy="19.543612468319385" r="0.45" fill="#16120e"/><rect x="42.3" y="25" width="6.4" height="15.600000000000001" rx="3" fill="#6f6350" stroke="#16120e" stroke-width="2.0" stroke-linejoin="round" stroke-linecap="round"/><circle cx="45.5" cy="41.1" r="2.6" fill="#e9dfc7" stroke="#16120e" stroke-width="2.0" stroke-linejoin="round" stroke-linecap="round" stroke-width="1.4"/><polygon points="44.5,40.1 46.5,40.1 46.1,32.1 45.5,30.1" fill="#d8d2c2" stroke="#16120e" stroke-width="2.0" stroke-linejoin="round" stroke-linecap="round" stroke-width="0.9"/><line x1="45.5" y1="41.1" x2="45.5" y2="44.1" stroke="#3b332a" stroke-width="2" stroke-linecap="round"/></g></svg>
