<svg xmlns="http://www.w3.org/2000/svg" width="64" height="64" viewBox="0 0 64 64"><defs><clipPath id="c1"><path d="M20,28 Q20,24 25,24 L39,24 Q44,24 44,28 L42.5,44 L21.5,44 Z" fill="#000"/></clipPath><clipPath id="c2"><circle cx="32" cy="15.5" r="7.8" fill="#000"/></clipPath></defs><ellipse cx="32" cy="59" rx="15" ry="3.5" fill="#16120e" opacity="0.3"/><rect x="25" y="42" width="6" height="15" rx="1.5" fill="#6f6350" stroke="#16120e" stroke-width="2.0" stroke-linejoin="round" stroke-linecap="round"/><rect x="24.5" y="54" width="7" height="4.5" rx="1.5" fill="#16120e"/><rect x="33" y="42" width="6" height="15" rx="1.5" fill="#6f6350" stroke="#16120e" stroke-width="2.0" stroke-linejoin="round" stroke-linecap="round"/><rect x="32.5" y="54" width="7" height="4.5" rx="1.5" fill="#16120e"/><path d="M20,28 Q20,24 25,24 L39,24 Q44,24 44,28 L42.5,44 L21.5,44 Z" fill="#a8987a" stroke="#16120e" stroke-width="2.0" stroke-linejoin="round" stroke-linecap="round"/><g clip-path="url(#c1)" stroke="#16120e" stroke-width="0.8" opacity="1.0" stroke-linecap="round"><line x1="12.0" y1="24" x2="34.0" y2="46"/><line x1="14.4" y1="24" x2="36.4" y2="46"/><line x1="16.8" y1="24" x2="38.8" y2="46"/><line x1="19.2" y1="24" x2="41.2" y2="46"/><line x1="21.6" y1="24" x2="43.6" y2="46"/><line x1="24.0" y1="24" x2="46.0" y2="46"/><line x1="26.4" y1="24" x2="48.4" y2="46"/><line x1="28.8" y1="24" x2="50.8" y2="46"/><line x1="31.2" y1="24" x2="53.2" y2="46"/><line x1="33.6" y1="24" x2="55.6" y2="46"/><line x1="36.0" y1="24" x2="58.0" y2="46"/><line x1="38.4" y1="24" x2="60.4" y2="46"/><line x1="40.8" y1="24" x2="62.8" y2="46"/><line x1="43.2" y1="24" x2="65.2" y2="46"/><line x1="45.6" y1="24" x2="67.6" y2="46"/><line x1="48.0" y1="24" x2="70.0" y2="46"/><line x1="50.4" y1="24" x2="72.4" y2="46"/><line x1="52.8" y1="24" x2="74.8" y2="46"/><line x1="55.2" y1="24" x2="77.2" y2="46"/><line x1="57.6" y1="24" x2="79.6" y2="46"/><line x1="60.0" y1="24" x2="82.0" y2="46"/><line x1="62.4" y1="24" x2="84.4" y2="46"/><line x1="64.8" y1="24" x2="86.8" y2="46"/><line x1="67.2" y1="24" x2="89.2" y2="46"/><line x1="69.6" y1="24" x2="91.6" y2="46"/></g><rect x="21.0" y="36.4" width="22.0" height="2.6" rx="0" fill="#16120e"/><rect x="15.3" y="25" width="6.4" height="15.600000000000001" rx="3" fill="#a8987a" stroke="#16120e" stroke-width="2.0" stroke-linejoin="round" stroke-linecap="round"/><circle cx="18.5" cy="41.1" r="2.6" fill="#e9dfc7" stroke="#16120e" stroke-width="2.0" stroke-linejoin="round" stroke-linecap="round" stroke-width="1.4"/><rect x="29.5" y="20.3" width="5" height="5" rx="0" fill="#e9dfc7" stroke="#16120e" stroke-width="2.0" stroke-linejoin="round" stroke-linecap="round" stroke-width="1.4"/><circle cx="32" cy="15.5" r="7.8" fill="#e9dfc7" stroke="#16120e" stroke-width="2.0" stroke-linejoin="round" stroke-linecap="round"/><g clip-path="url(#c2)" stroke="#16120e" stroke-width="0.45" opacity="0.5" stroke-linecap="round"><line x1="20.3" y1="7.7" x2="35.9" y2="23.3"/><line x1="22.3" y1="7.7" x2="37.9" y2="23.3"/><line x1="24.3" y1="7.7" x2="39.9" y2="23.3"/><line x1="26.3" y1="7.7" x2="41.9" y2="23.3"/><line x1="28.3" y1="7.7" x2="43.9" y2="23.3"/><line x1="30.3" y1="7.7" x2="45.9" y2="23.3"/><line x1="32.3" y1="7.7" x2="47.9" y2="23.3"/><line x1="34.3" y1="7.7" x2="49.9" y2="23.3"/><line x1="36.3" y1="7.7" x2="51.9" y2="23.3"/><line x1="38.3" y1="7.7" x2="53.9" y2="23.3"/><line x1="40.3" y1="7.7" x2="55.9" y2="23.3"/><line x1="42.3" y1="7.7" x2="57.9" y2="23.3"/><line x1="44.3" y1="7.7" x2="59.9" y2="23.3"/><line x1="46.3" y1="7.7" x2="61.9" y2="23.3"/><line x1="48.3" y1="7.7" x2="63.9" y2="23.3"/><line x1="50.3" y1="7.7" x2="65.9" y2="23.3"/><line x1="52.3" y1="7.7" x2="67.9" y2="23.3"/><line x1="54.3" y1="7.7" x2="69.9" y2="23.3"/><line x1="56.3" y1="7.7" x2="71.9" y2="23.3"/><line x1="58.3" y1="7.7" x2="73.9" y2="23.3"/></g><path d="M23.599999999999998,16.5 Q23.2,5.2 32,6.1 Q40.8,5.2 40.4,16.5 L38.0,13.0 Q32,8.9 26.0,13.0 Z" fill="#16120e" stroke="#16120e" stroke-width="1.2" stroke-linejoin="round" stroke-linecap="round"/><line x1="29" y1="7.3" x2="33" y2="6.5" stroke="#e9dfc7" stroke-width="0.7" stroke-linecap="round" opacity="0.7"/><circle cx="29" cy="16.3" r="1.05" fill="#16120e"/><circle cx="35" cy="16.3" r="1.05" fill="#16120e"/><path d="M30.2,20.3 L33.8,20.3" fill="none" stroke="#16120e" stroke-width="1" stroke-linejoin="round" stroke-linecap="round"/><path d="M25.2,16.5 Q25.2,27.3 32,27.8 Q38.8,27.3 38.8,16.5 Q35,22.0 32,21.5 Q29,22.0 25.2,16.5 Z" fill="#6f6350" stroke="#16120e" stroke-width="1" stroke-linejoin="round" stroke-linecap="round"/><path d="M29.8,19.9 L34.2,19.9" fill="none" stroke="#e9dfc7" stroke-width="0.9"/><rect x="42.3" y="25" width="6.4" height="15.600000000000001" rx="3" fill="#a8987a" stroke="#16120e" stroke-width="2.0" stroke-linejoin="round" stroke-linecap="round"/><circle cx="45.5" cy="41.1" r="2.6" fill="#e9dfc7" stroke="#16120e" stroke-width="2.0" stroke-linejoin="round" stroke-linecap="round" stroke-width="1.4"/></svg>
