<svg xmlns="http://www.w3.org/2000/svg" width="64" height="64" viewBox="0 0 48 48"><rect x="0" y="0" width="48" height="48" rx="0" fill="#a8987a"/><line x1="0" y1="2" x2="-2" y2="8" stroke="#16120e" stroke-width="1.1" stroke-linecap="round"/><line x1="6" y1="2" x2="4" y2="8" stroke="#16120e" stroke-width="1.1" stroke-linecap="round"/><line x1="12" y1="2" x2="10" y2="8" stroke="#16120e" stroke-width="1.1" stroke-linecap="round"/><line x1="18" y1="2" x2="16" y2="8" stroke="#16120e" stroke-width="1.1" stroke-linecap="round"/><line x1="24" y1="2" x2="22" y2="8" stroke="#16120e" stroke-width="1.1" stroke-linecap="round"/><line x1="30" y1="2" x2="28" y2="8" stroke="#16120e" stroke-width="1.1" stroke-linecap="round"/><line x1="36" y1="2" x2="34" y2="8" stroke="#16120e" stroke-width="1.1" stroke-linecap="round"/><line x1="42" y1="2" x2="40" y2="8" stroke="#16120e" stroke-width="1.1" stroke-linecap="round"/><line x1="48" y1="2" x2="46" y2="8" stroke="#16120e" stroke-width="1.1" stroke-linecap="round"/><line x1="3" y1="10" x2="1" y2="16" stroke="#16120e" stroke-width="1.1" stroke-linecap="round"/><line x1="9" y1="10" x2="7" y2="16" stroke="#16120e" stroke-width="1.1" stroke-linecap="round"/><line x1="15" y1="10" x2="13" y2="16" stroke="#16120e" stroke-width="1.1" stroke-linecap="round"/><line x1="21" y1="10" x2="19" y2="16" stroke="#16120e" stroke-width="1.1" stroke-linecap="round"/><line x1="27" y1="10" x2="25" y2="16" stroke="#16120e" stroke-width="1.1" stroke-linecap="round"/><line x1="33" y1="10" x2="31" y2="16" stroke="#16120e" stroke-width="1.1" stroke-linecap="round"/><line x1="39" y1="10" x2="37" y2="16" stroke="#16120e" stroke-width="1.1" stroke-linecap="round"/><line x1="45" y1="10" x2="43" y2="16" stroke="#16120e" stroke-width="1.1" stroke-linecap="round"/><line x1="51" y1="10" x2="49" y2="16" stroke="#16120e" stroke-width="1.1" stroke-linecap="round"/><line x1="0" y1="18" x2="-2" y2="24" stroke="#16120e" stroke-width="1.1" stroke-linecap="round"/><line x1="6" y1="18" x2="4" y2="24" stroke="#16120e" stroke-width="1.1" stroke-linecap="round"/><line x1="12" y1="18" x2="10" y2="24" stroke="#16120e" stroke-width="1.1" stroke-linecap="round"/><line x1="18" y1="18" x2="16" y2="24" stroke="#16120e" stroke-width="1.1" stroke-linecap="round"/><line x1="24" y1="18" x2="22" y2="24" stroke="#16120e" stroke-width="1.1" stroke-linecap="round"/><line x1="30" y1="18" x2="28" y2="24" stroke="#16120e" stroke-width="1.1" stroke-linecap="round"/><line x1="36" y1="18" x2="34" y2="24" stroke="#16120e" stroke-width="1.1" stroke-linecap="round"/><line x1="42" y1="18" x2="40" y2="24" stroke="#16120e" stroke-width="1.1" stroke-linecap="round"/><line x1="48" y1="18" x2="46" y2="24" stroke="#16120e" stroke-width="1.1" stroke-linecap="round"/><line x1="3" y1="26" x2="1" y2="32" stroke="#16120e" stroke-width="1.1" stroke-linecap="round"/><line x1="9" y1="26" x2="7" y2="32" stroke="#16120e" stroke-width="1.1" stroke-linecap="round"/><line x1="15" y1="26" x2="13" y2="32" stroke="#16120e" stroke-width="1.1" stroke-linecap="round"/><line x1="21" y1="26" x2="19" y2="32" stroke="#16120e" stroke-width="1.1" stroke-linecap="round"/><line x1="27" y1="26" x2="25" y2="32" stroke="#16120e" stroke-width="1.1" stroke-linecap="round"/><line x1="33" y1="26" x2="31" y2="32" stroke="#16120e" stroke-width="1.1" stroke-linecap="round"/><line x1="39" y1="26" x2="37" y2="32" stroke="#16120e" stroke-width="1.1" stroke-linecap="round"/><line x1="45" y1="26" x2="43" y2="32" stroke="#16120e" stroke-width="1.1" stroke-linecap="round"/><line x1="51" y1="26" x2="49" y2="32" stroke="#16120e" stroke-width="1.1" stroke-linecap="round"/><line x1="0" y1="34" x2="-2" y2="40" stroke="#16120e" stroke-width="1.1" stroke-linecap="round"/><line x1="6" y1="34" x2="4" y2="40" stroke="#16120e" stroke-width="1.1" stroke-linecap="round"/><line x1="12" y1="34" x2="10" y2="40" stroke="#16120e" stroke-width="1.1" stroke-linecap="round"/><line x1="18" y1="34" x2="16" y2="40" stroke="#16120e" stroke-width="1.1" stroke-linecap="round"/><line x1="24" y1="34" x2="22" y2="40" stroke="#16120e" stroke-width="1.1" stroke-linecap="round"/><line x1="30" y1="34" x2="28" y2="40" stroke="#16120e" stroke-width="1.1" stroke-linecap="round"/><line x1="36" y1="34" x2="34" y2="40" stroke="#16120e" stroke-width="1.1" stroke-linecap="round"/><line x1="42" y1="34" x2="40" y2="40" stroke="#16120e" stroke-width="1.1" stroke-linecap="round"/><line x1="48" y1="34" x2="46" y2="40" stroke="#16120e" stroke-width="1.1" stroke-linecap="round"/><line x1="3" y1="42" x2="1" y2="48" stroke="#16120e" stroke-width="1.1" stroke-linecap="round"/><line x1="9" y1="42" x2="7" y2="48" stroke="#16120e" stroke-width="1.1" stroke-linecap="round"/><line x1="15" y1="42" x2="13" y2="48" stroke="#16120e" stroke-width="1.1" stroke-linecap="round"/><line x1="21" y1="42" x2="19" y2="48" stroke="#16120e" stroke-width="1.1" stroke-linecap="round"/><line x1="27" y1="42" x2="25" y2="48" stroke="#16120e" stroke-width="1.1" stroke-linecap="round"/><line x1="33" y1="42" x2="31" y2="48" stroke="#16120e" stroke-width="1.1" stroke-linecap="round"/><line x1="39" y1="42" x2="37" y2="48" stroke="#16120e" stroke-width="1.1" stroke-linecap="round"/><line x1="45" y1="42" x2="43" y2="48" stroke="#16120e" stroke-width="1.1" stroke-linecap="round"/><line x1="51" y1="42" x2="49" y2="48" stroke="#16120e" stroke-width="1.1" stroke-linecap="round"/></svg>
