<svg xmlns="http://www.w3.org/2000/svg" width="64" height="64" viewBox="0 0 48 48"><rect x="0" y="0" width="48" height="48" rx="0" fill="#c9b27a"/><line x1="3" y1="12" x2="4" y2="8" stroke="#6d5520" stroke-width="1.2" stroke-linecap="round"/><line x1="3" y1="28" x2="4" y2="24" stroke="#6d5520" stroke-width="1.2" stroke-linecap="round"/><line x1="3" y1="44" x2="4" y2="40" stroke="#6d5520" stroke-width="1.2" stroke-linecap="round"/><line x1="9" y1="12" x2="10" y2="8" stroke="#6d5520" stroke-width="1.2" stroke-linecap="round"/><line x1="9" y1="28" x2="10" y2="24" stroke="#6d5520" stroke-width="1.2" stroke-linecap="round"/><line x1="9" y1="44" x2="10" y2="40" stroke="#6d5520" stroke-width="1.2" stroke-linecap="round"/><line x1="15" y1="12" x2="16" y2="8" stroke="#6d5520" stroke-width="1.2" stroke-linecap="round"/><line x1="15" y1="28" x2="16" y2="24" stroke="#6d5520" stroke-width="1.2" stroke-linecap="round"/><line x1="15" y1="44" x2="16" y2="40" stroke="#6d5520" stroke-width="1.2" stroke-linecap="round"/><line x1="21" y1="12" x2="22" y2="8" stroke="#6d5520" stroke-width="1.2" stroke-linecap="round"/><line x1="21" y1="28" x2="22" y2="24" stroke="#6d5520" stroke-width="1.2" stroke-linecap="round"/><line x1="21" y1="44" x2="22" y2="40" stroke="#6d5520" stroke-width="1.2" stroke-linecap="round"/><line x1="27" y1="12" x2="28" y2="8" stroke="#6d5520" stroke-width="1.2" stroke-linecap="round"/><line x1="27" y1="28" x2="28" y2="24" stroke="#6d5520" stroke-width="1.2" stroke-linecap="round"/><line x1="27" y1="44" x2="28" y2="40" stroke="#6d5520" stroke-width="1.2" stroke-linecap="round"/><line x1="33" y1="12" x2="34" y2="8" stroke="#6d5520" stroke-width="1.2" stroke-linecap="round"/><line x1="33" y1="28" x2="34" y2="24" stroke="#6d5520" stroke-width="1.2" stroke-linecap="round"/><line x1="33" y1="44" x2="34" y2="40" stroke="#6d5520" stroke-width="1.2" stroke-linecap="round"/><line x1="39" y1="12" x2="40" y2="8" stroke="#6d5520" stroke-width="1.2" stroke-linecap="round"/><line x1="39" y1="28" x2="40" y2="24" stroke="#6d5520" stroke-width="1.2" stroke-linecap="round"/><line x1="39" y1="44" x2="40" y2="40" stroke="#6d5520" stroke-width="1.2" stroke-linecap="round"/><line x1="45" y1="12" x2="46" y2="8" stroke="#6d5520" stroke-width="1.2" stroke-linecap="round"/><line x1="45" y1="28" x2="46" y2="24" stroke="#6d5520" stroke-width="1.2" stroke-linecap="round"/><line x1="45" y1="44" x2="46" y2="40" stroke="#6d5520" stroke-width="1.2" stroke-linecap="round"/></svg>
