<svg xmlns="http://www.w3.org/2000/svg" width="1344" height="168" viewBox="0 0 768.0000 96.0000"><defs><clipPath id="c1"><path d="M20,28 Q20,24 25,24 L39,24 Q44,24 44,28 L42.5,44 L39.5,41 L35,45 L32,41 L28,45 L21.5,42 Z" fill="#000"/></clipPath><clipPath id="c2"><circle cx="32" cy="15.5" r="7.8" fill="#000"/></clipPath><clipPath id="cell3"><rect x="-16" y="-16" width="96.0000" height="96.0000"/></clipPath></defs><g transform="translate(16.0000,16)"><g clip-path="url(#cell3)"><ellipse cx="32" cy="59" rx="15" ry="3.5" fill="#16120e" opacity="0.3"/></g></g><g transform="translate(112.0000,16)"><g clip-path="url(#cell3)"><rect x="25" y="42" width="6" height="15" rx="1.5" fill="#6f6350" stroke="#16120e" stroke-width="2.0" stroke-linejoin="round" stroke-linecap="round"/><rect x="24.5" y="54" width="7" height="4.5" rx="1.5" fill="#16120e"/></g></g><g transform="translate(208.0000,16)"><g clip-path="url(#cell3)"><rect x="33" y="42" width="6" height="15" rx="1.5" fill="#6f6350" stroke="#16120e" stroke-width="2.0" stroke-linejoin="round" stroke-linecap="round"/><rect x="32.5" y="54" width="7" height="4.5" rx="1.5" fill="#16120e"/></g></g><g transform="translate(304.0000,16)"><g clip-path="url(#cell3)"><path d="M20,28 Q20,24 25,24 L39,24 Q44,24 44,28 L42.5,44 L39.5,41 L35,45 L32,41 L28,45 L21.5,42 Z" fill="#3b332a" stroke="#16120e" stroke-width="2.0" stroke-linejoin="round" stroke-linecap="round"/><g clip-path="url(#c1)" stroke="#16120e" stroke-width="0.8" opacity="1.0" stroke-linecap="round"><line x1="12.0" y1="24" x2="34.0" y2="46"/><line x1="14.4" y1="24" x2="36.4" y2="46"/><line x1="16.8" y1="24" x2="38.8" y2="46"/><line x1="19.2" y1="24" x2="41.2" y2="46"/><line x1="21.6" y1="24" x2="43.6" y2="46"/><line x1="24.0" y1="24" x2="46.0" y2="46"/><line x1="26.4" y1="24" x2="48.4" y2="46"/><line x1="28.8" y1="24" x2="50.8" y2="46"/><line x1="31.2" y1="24" x2="53.2" y2="46"/><line x1="33.6" y1="24" x2="55.6" y2="46"/><line x1="36.0" y1="24" x2="58.0" y2="46"/><line x1="38.4" y1="24" x2="60.4" y2="46"/><line x1="40.8" y1="24" x2="62.8" y2="46"/><line x1="43.2" y1="24" x2="65.2" y2="46"/><line x1="45.6" y1="24" x2="67.6" y2="46"/><line x1="48.0" y1="24" x2="70.0" y2="46"/><line x1="50.4" y1="24" x2="72.4" y2="46"/><line x1="52.8" y1="24" x2="74.8" y2="46"/><line x1="55.2" y1="24" x2="77.2" y2="46"/><line x1="57.6" y1="24" x2="79.6" y2="46"/><line x1="60.0" y1="24" x2="82.0" y2="46"/><line x1="62.4" y1="24" x2="84.4" y2="46"/><line x1="64.8" y1="24" x2="86.8" y2="46"/><line x1="67.2" y1="24" x2="89.2" y2="46"/><line x1="69.6" y1="24" x2="91.6" y2="46"/></g><rect x="23" y="32" width="5" height="5" rx="0" fill="#cfc2a2" stroke="#16120e" stroke-width="2.0" stroke-linejoin="round" stroke-linecap="round" stroke-width="1"/><rect x="34" y="36" width="4" height="6" rx="0" fill="#3b332a" stroke="#16120e" stroke-width="2.0" stroke-linejoin="round" stroke-linecap="round" stroke-width="1"/><rect x="21.0" y="36.4" width="22.0" height="2.6" rx="0" fill="#16120e"/><circle cx="30.857109284235648" cy="36.07590294944893" r="1.5242105840237294" fill="#a3261f"/><circle cx="31.17560168239456" cy="35.14114291512088" r="1.187384828849897" fill="#a3261f"/><circle cx="24.43184825251704" cy="35.2143555027525" r="1.229882720216802" fill="#a3261f"/><circle cx="39.03144494047886" cy="27.694222212125933" r="0.9034012626245255" fill="#a3261f"/><circle cx="22.176092899804146" cy="40.573601618609196" r="1.293438482541239" fill="#a3261f"/></g></g><g transform="translate(400.0000,16)"><g clip-path="url(#cell3)"><rect x="15.3" y="25" width="6.4" height="15.600000000000001" rx="3" fill="#3b332a" stroke="#16120e" stroke-width="2.0" stroke-linejoin="round" stroke-linecap="round"/><circle cx="18.5" cy="41.1" r="2.6" fill="#e9dfc7" stroke="#16120e" stroke-width="2.0" stroke-linejoin="round" stroke-linecap="round" stroke-width="1.4"/></g></g><g transform="translate(496.0000,16)"><g clip-path="url(#cell3)"><rect x="29.5" y="20.3" width="5" height="5" rx="0" fill="#e9dfc7" stroke="#16120e" stroke-width="2.0" stroke-linejoin="round" stroke-linecap="round" stroke-width="1.4"/><path d="M21.2,26.3 Q20.2,4.7 32,4.7 Q43.8,4.7 42.8,26.3 Z" fill="#3b332a" stroke="#16120e" stroke-width="2.0" stroke-linejoin="round" stroke-linecap="round"/><circle cx="32" cy="15.5" r="7.8" fill="#e9dfc7" stroke="#16120e" stroke-width="2.0" stroke-linejoin="round" stroke-linecap="round"/><g clip-path="url(#c2)" stroke="#16120e" stroke-width="0.45" opacity="0.5" stroke-linecap="round"><line x1="20.3" y1="7.7" x2="35.9" y2="23.3"/><line x1="22.3" y1="7.7" x2="37.9" y2="23.3"/><line x1="24.3" y1="7.7" x2="39.9" y2="23.3"/><line x1="26.3" y1="7.7" x2="41.9" y2="23.3"/><line x1="28.3" y1="7.7" x2="43.9" y2="23.3"/><line x1="30.3" y1="7.7" x2="45.9" y2="23.3"/><line x1="32.3" y1="7.7" x2="47.9" y2="23.3"/><line x1="34.3" y1="7.7" x2="49.9" y2="23.3"/><line x1="36.3" y1="7.7" x2="51.9" y2="23.3"/><line x1="38.3" y1="7.7" x2="53.9" y2="23.3"/><line x1="40.3" y1="7.7" x2="55.9" y2="23.3"/><line x1="42.3" y1="7.7" x2="57.9" y2="23.3"/><line x1="44.3" y1="7.7" x2="59.9" y2="23.3"/><line x1="46.3" y1="7.7" x2="61.9" y2="23.3"/><line x1="48.3" y1="7.7" x2="63.9" y2="23.3"/><line x1="50.3" y1="7.7" x2="65.9" y2="23.3"/><line x1="52.3" y1="7.7" x2="67.9" y2="23.3"/><line x1="54.3" y1="7.7" x2="69.9" y2="23.3"/><line x1="56.3" y1="7.7" x2="71.9" y2="23.3"/><line x1="58.3" y1="7.7" x2="73.9" y2="23.3"/></g><circle cx="29" cy="16.3" r="1.05" fill="#16120e"/><circle cx="35" cy="16.3" r="1.05" fill="#16120e"/><line x1="27" y1="14.5" x2="30.5" y2="14.100000000000001" stroke="#16120e" stroke-width="1" stroke-linecap="round"/><line x1="37" y1="13.5" x2="33.5" y2="14.5" stroke="#16120e" stroke-width="1" stroke-linecap="round"/><path d="M29.6,20.3 q2.8,0.6 4.8,-1" fill="none" stroke="#16120e" stroke-width="1" stroke-linejoin="round" stroke-linecap="round"/><circle cx="37.45021720055827" cy="18.64169668796321" r="0.45" fill="#16120e"/><circle cx="36.69229856737469" cy="19.82136921100387" r="0.45" fill="#16120e"/><circle cx="35.57083655688882" cy="20.782451617312265" r="0.45" fill="#16120e"/><circle cx="34.17271824181229" cy="21.45048250192058" r="0.45" fill="#16120e"/><circle cx="32.60626508695239" cy="21.77370509776771" r="0.45" fill="#16120e"/><circle cx="30.992840569531804" cy="21.727077214458596" r="0.45" fill="#16120e"/><circle cx="29.45744734862335" cy="21.314211422236" r="0.45" fill="#16120e"/><circle cx="28.119042483118623" cy="20.567095162291494" r="0.45" fill="#16120e"/><circle cx="27.08132104229273" cy="19.543612468319385" r="0.45" fill="#16120e"/><path d="M22.2,18.5 Q21.2,4.7 32,4.7 Q42.8,4.7 41.8,18.5 L38.3,16.5 Q37.8,8.7 32,9.2 Q26.2,8.7 25.7,16.5 Z" fill="#3b332a" stroke="#16120e" stroke-width="2.0" stroke-linejoin="round" stroke-linecap="round"/></g></g><g transform="translate(592.0000,16)"><g clip-path="url(#cell3)"><rect x="42.3" y="25" width="6.4" height="15.600000000000001" rx="3" fill="#3b332a" stroke="#16120e" stroke-width="2.0" stroke-linejoin="round" stroke-linecap="round"/><circle cx="45.5" cy="41.1" r="2.6" fill="#e9dfc7" stroke="#16120e" stroke-width="2.0" stroke-linejoin="round" stroke-linecap="round" stroke-width="1.4"/></g></g><g transform="translate(688.0000,16)"><g clip-path="url(#cell3)"><polygon points="44.5,40.1 46.5,40.1 46.1,32.1 45.5,30.1" fill="#d8d2c2" stroke="#16120e" stroke-width="2.0" stroke-linejoin="round" stroke-linecap="round" stroke-width="0.9"/><line x1="45.5" y1="41.1" x2="45.5" y2="44.1" stroke="#3b332a" stroke-width="2" stroke-linecap="round"/></g></g></svg>
