<svg xmlns="http://www.w3.org/2000/svg" width="672" height="96" viewBox="0 0 672.0000 96.0000"><defs><clipPath id="c1"><path d="M22,33.5 Q22,29.5 27,29.5 L37,29.5 Q42,29.5 42,33.5 L41.5,46 L22.5,46 Z" fill="#000"/></clipPath><clipPath id="c2"><circle cx="32" cy="21" r="8" fill="#000"/></clipPath><clipPath id="cell3"><rect x="-16" y="-16" width="96.0000" height="96.0000"/></clipPath></defs><g transform="translate(16.0000,16)"><g clip-path="url(#cell3)"><ellipse cx="32" cy="59" rx="15" ry="3.5" fill="#16120e" opacity="0.3"/></g></g><g transform="translate(112.0000,16)"><g clip-path="url(#cell3)"><rect x="25" y="44" width="6" height="13" rx="1.5" fill="#6f6350" stroke="#16120e" stroke-width="2.0" stroke-linejoin="round" stroke-linecap="round"/><rect x="24.5" y="54" width="7" height="4.5" rx="1.5" fill="#16120e"/></g></g><g transform="translate(208.0000,16)"><g clip-path="url(#cell3)"><rect x="33" y="44" width="6" height="13" rx="1.5" fill="#6f6350" stroke="#16120e" stroke-width="2.0" stroke-linejoin="round" stroke-linecap="round"/><rect x="32.5" y="54" width="7" height="4.5" rx="1.5" fill="#16120e"/></g></g><g transform="translate(304.0000,16)"><g clip-path="url(#cell3)"><path d="M22,33.5 Q22,29.5 27,29.5 L37,29.5 Q42,29.5 42,33.5 L41.5,46 L22.5,46 Z" fill="#cfc2a2" stroke="#16120e" stroke-width="2.0" stroke-linejoin="round" stroke-linecap="round"/><g clip-path="url(#c1)" stroke="#16120e" stroke-width="0.8" opacity="1.0" stroke-linecap="round"><line x1="15.5" y1="29.5" x2="34.0" y2="48.0"/><line x1="17.9" y1="29.5" x2="36.4" y2="48.0"/><line x1="20.3" y1="29.5" x2="38.8" y2="48.0"/><line x1="22.7" y1="29.5" x2="41.2" y2="48.0"/><line x1="25.1" y1="29.5" x2="43.6" y2="48.0"/><line x1="27.5" y1="29.5" x2="46.0" y2="48.0"/><line x1="29.9" y1="29.5" x2="48.4" y2="48.0"/><line x1="32.3" y1="29.5" x2="50.8" y2="48.0"/><line x1="34.7" y1="29.5" x2="53.2" y2="48.0"/><line x1="37.1" y1="29.5" x2="55.6" y2="48.0"/><line x1="39.5" y1="29.5" x2="58.0" y2="48.0"/><line x1="41.9" y1="29.5" x2="60.4" y2="48.0"/><line x1="44.3" y1="29.5" x2="62.8" y2="48.0"/><line x1="46.7" y1="29.5" x2="65.2" y2="48.0"/><line x1="49.1" y1="29.5" x2="67.6" y2="48.0"/><line x1="51.5" y1="29.5" x2="70.0" y2="48.0"/><line x1="53.9" y1="29.5" x2="72.4" y2="48.0"/><line x1="56.3" y1="29.5" x2="74.8" y2="48.0"/><line x1="58.7" y1="29.5" x2="77.2" y2="48.0"/><line x1="61.1" y1="29.5" x2="79.6" y2="48.0"/><line x1="63.5" y1="29.5" x2="82.0" y2="48.0"/></g><rect x="22.0" y="39.730000000000004" width="20.0" height="2.6" rx="0" fill="#16120e"/></g></g><g transform="translate(400.0000,16)"><g clip-path="url(#cell3)"><rect x="17.3" y="30.5" width="6.4" height="12.870000000000001" rx="3" fill="#cfc2a2" stroke="#16120e" stroke-width="2.0" stroke-linejoin="round" stroke-linecap="round"/><circle cx="20.5" cy="43.870000000000005" r="2.6" fill="#e9dfc7" stroke="#16120e" stroke-width="2.0" stroke-linejoin="round" stroke-linecap="round" stroke-width="1.4"/></g></g><g transform="translate(496.0000,16)"><g clip-path="url(#cell3)"><rect x="29.5" y="26" width="5" height="5" rx="0" fill="#e9dfc7" stroke="#16120e" stroke-width="2.0" stroke-linejoin="round" stroke-linecap="round" stroke-width="1.4"/><circle cx="32" cy="21" r="8" fill="#e9dfc7" stroke="#16120e" stroke-width="2.0" stroke-linejoin="round" stroke-linecap="round"/><g clip-path="url(#c2)" stroke="#16120e" stroke-width="0.45" opacity="0.5" stroke-linecap="round"><line x1="20.0" y1="13" x2="36.0" y2="29"/><line x1="22.0" y1="13" x2="38.0" y2="29"/><line x1="24.0" y1="13" x2="40.0" y2="29"/><line x1="26.0" y1="13" x2="42.0" y2="29"/><line x1="28.0" y1="13" x2="44.0" y2="29"/><line x1="30.0" y1="13" x2="46.0" y2="29"/><line x1="32.0" y1="13" x2="48.0" y2="29"/><line x1="34.0" y1="13" x2="50.0" y2="29"/><line x1="36.0" y1="13" x2="52.0" y2="29"/><line x1="38.0" y1="13" x2="54.0" y2="29"/><line x1="40.0" y1="13" x2="56.0" y2="29"/><line x1="42.0" y1="13" x2="58.0" y2="29"/><line x1="44.0" y1="13" x2="60.0" y2="29"/><line x1="46.0" y1="13" x2="62.0" y2="29"/><line x1="48.0" y1="13" x2="64.0" y2="29"/><line x1="50.0" y1="13" x2="66.0" y2="29"/><line x1="52.0" y1="13" x2="68.0" y2="29"/><line x1="54.0" y1="13" x2="70.0" y2="29"/><line x1="56.0" y1="13" x2="72.0" y2="29"/><line x1="58.0" y1="13" x2="74.0" y2="29"/></g><path d="M23.4,22 Q23,10.5 32,11.4 Q41,10.5 40.6,22 L38.2,18.5 Q32,14.2 25.8,18.5 Z" fill="#16120e" stroke="#16120e" stroke-width="1.2" stroke-linejoin="round" stroke-linecap="round"/><line x1="29" y1="12.6" x2="33" y2="11.8" stroke="#e9dfc7" stroke-width="0.7" stroke-linecap="round" opacity="0.7"/><polygon points="25,18 29,20 31,17 34,20 36,17 39,19 39,16 25,16" fill="#16120e"/><circle cx="29" cy="21.8" r="1.05" fill="#16120e"/><circle cx="35" cy="21.8" r="1.05" fill="#16120e"/><line x1="27" y1="20.0" x2="30.5" y2="19.6" stroke="#16120e" stroke-width="1" stroke-linecap="round"/><line x1="37" y1="19.0" x2="33.5" y2="20.0" stroke="#16120e" stroke-width="1" stroke-linecap="round"/><path d="M29.6,25.8 q2.8,0.6 4.8,-1" fill="none" stroke="#16120e" stroke-width="1" stroke-linejoin="round" stroke-linecap="round"/></g></g><g transform="translate(592.0000,16)"><g clip-path="url(#cell3)"><rect x="40.3" y="30.5" width="6.4" height="12.870000000000001" rx="3" fill="#cfc2a2" stroke="#16120e" stroke-width="2.0" stroke-linejoin="round" stroke-linecap="round"/><circle cx="43.5" cy="43.870000000000005" r="2.6" fill="#e9dfc7" stroke="#16120e" stroke-width="2.0" stroke-linejoin="round" stroke-linecap="round" stroke-width="1.4"/></g></g></svg>
